<?xml version="1.0" standalone="no"?>
<!DOCTYPE svg PUBLIC "-//W3C//DTD SVG 20010904//EN"
 "http://www.w3.org/TR/2001/REC-SVG-20010904/DTD/svg10.dtd">
<svg version="1.0" xmlns="http://www.w3.org/2000/svg"
 width="857.000000pt" height="857.000000pt" viewBox="0 0 857.000000 857.000000"
 preserveAspectRatio="xMidYMid meet">
<metadata>
Created by potrace 1.11, written by Peter Selinger 2001-2013
</metadata>
<g transform="translate(0.000000,857.000000) scale(0.100000,-0.100000)"
fill="#000000" stroke="none">
<path d="M2000 8365 c6 -7 2 -17 -10 -28 -12 -10 -20 -12 -20 -6 0 7 -9 0 -20
-14 -29 -36 -92 -158 -86 -165 3 -3 2 -10 -3 -16 -8 -9 -21 -52 -37 -116 -2
-8 -8 -33 -13 -56 -15 -60 -24 -121 -36 -244 -9 -94 -14 -140 -20 -180 -2 -19
-7 -62 -10 -95 -3 -33 -8 -76 -10 -95 -3 -19 -7 -57 -10 -85 -2 -27 -7 -72
-11 -100 -7 -61 -11 -92 -19 -170 -3 -33 -8 -71 -10 -85 -4 -23 -8 -49 -20
-155 -2 -22 -7 -56 -10 -75 -3 -19 -8 -55 -11 -80 -3 -25 -7 -56 -9 -70 -3
-14 -7 -47 -10 -75 -4 -27 -8 -63 -11 -80 -9 -48 -25 -179 -30 -230 -1 -16 -3
-30 -4 -30 -3 0 -10 -41 -14 -90 -3 -27 -5 -50 -6 -50 -6 0 -22 -125 -22 -167
0 -16 -3 -28 -7 -28 -4 0 -7 -15 -7 -32 -1 -30 -7 -77 -19 -138 -5 -24 -12
-72 -20 -127 -2 -15 -7 -46 -10 -68 -9 -53 -14 -84 -20 -120 -2 -16 -6 -43 -9
-60 -3 -16 -8 -46 -11 -65 -3 -19 -7 -46 -9 -60 -2 -14 -7 -44 -11 -68 -9 -54
-13 -77 -15 -77 -1 0 -3 -13 -4 -30 -7 -64 -29 -175 -35 -169 -3 3 -7 29 -8
57 0 29 -2 52 -3 52 -2 0 -4 16 -6 35 -1 19 -5 46 -7 60 -3 14 -8 48 -11 75
-4 28 -8 66 -11 85 -3 19 -7 58 -10 85 -2 28 -7 70 -10 95 -10 74 -16 132 -20
180 -2 25 -6 59 -9 75 -3 17 -8 66 -12 110 -3 44 -8 89 -10 100 -2 11 -7 56
-10 100 -4 44 -10 81 -15 83 -5 2 -5 12 1 21 5 10 7 21 3 24 -3 4 -7 26 -9 49
-2 24 -7 72 -10 108 -9 115 -14 164 -18 205 -2 22 -7 78 -10 125 -4 47 -9 108
-12 135 -2 28 -6 84 -9 125 -8 104 -13 165 -15 165 -1 0 -10 119 -13 187 -1
27 -4 48 -7 48 -3 0 -5 21 -6 48 0 26 -4 79 -8 117 -4 39 -9 90 -11 115 -3 25
-7 68 -11 95 -3 28 -7 64 -9 80 -3 29 -10 89 -20 170 -3 22 -7 51 -10 65 -7
39 -17 92 -21 120 -6 40 -15 84 -21 100 -4 8 -7 17 -8 20 -7 30 -31 89 -42
106 -7 11 -10 23 -7 26 3 4 -4 11 -15 18 -12 6 -21 17 -21 26 0 8 -12 19 -26
24 -14 6 -22 15 -18 21 4 8 -1 9 -16 4 -16 -5 -20 -4 -16 4 10 16 -17 9 -30
-8 -9 -11 -12 -12 -19 -1 -6 9 -4 11 5 5 9 -5 11 -4 6 4 -6 9 -11 9 -21 1 -8
-7 -18 -9 -23 -6 -9 5 -75 -66 -73 -78 1 -3 -8 -15 -19 -26 -11 -11 -20 -27
-20 -35 0 -8 -5 -15 -12 -15 -6 0 -9 -3 -5 -6 3 -4 0 -18 -7 -33 -8 -14 -24
-62 -36 -106 -24 -87 -25 -92 -40 -177 -6 -32 -13 -70 -16 -85 -3 -14 -7 -30
-10 -35 -3 -4 0 -8 7 -8 8 0 8 -4 1 -12 -5 -7 -12 -33 -15 -58 -3 -25 -11 -80
-17 -123 -6 -42 -8 -82 -5 -87 3 -6 3 -10 -2 -10 -4 0 -9 -22 -11 -49 -2 -28
-5 -60 -7 -73 -3 -13 -8 -57 -11 -98 -10 -105 -12 -125 -14 -125 -1 0 -3 -29
-5 -65 -2 -36 -6 -88 -9 -116 -15 -159 -19 -204 -22 -254 -1 -30 -3 -55 -4
-55 -1 0 -3 -16 -5 -35 -2 -19 -6 -75 -11 -125 -4 -49 -7 -105 -7 -122 0 -18
-3 -33 -6 -33 -3 0 -6 -19 -7 -43 -1 -52 -14 -232 -19 -272 -3 -16 -7 -55 -10
-85 -3 -30 -9 -69 -14 -86 -6 -21 -5 -36 2 -43 7 -7 7 -11 1 -11 -6 0 -11 -6
-11 -12 0 -16 -13 -122 -19 -164 -6 -41 -14 -99 -19 -149 -2 -22 -6 -53 -9
-70 -3 -16 -8 -52 -11 -80 -12 -103 -25 -197 -31 -230 -3 -11 -7 -47 -10 -80
-3 -33 -10 -65 -14 -70 -5 -6 -5 -17 0 -25 5 -8 6 -18 3 -23 -6 -9 -11 -42
-17 -102 -3 -22 -5 -40 -6 -40 -2 0 -5 -24 -14 -110 -3 -33 -8 -71 -11 -85 -3
-14 -7 -50 -10 -81 -2 -31 -7 -71 -10 -90 -4 -19 -8 -54 -10 -79 -2 -25 -6
-58 -8 -75 -6 -31 -17 -155 -22 -235 -2 -25 -4 -45 -5 -45 -1 0 -3 -34 -5 -75
-3 -41 -7 -122 -11 -180 -9 -152 -10 -516 -1 -577 4 -28 12 -64 18 -80 6 -15
10 -29 10 -30 -1 -2 -1 -4 0 -5 4 -13 10 -45 11 -55 1 -7 5 -13 10 -13 4 0 8
-9 8 -20 0 -11 5 -20 10 -20 6 0 10 -7 10 -15 0 -8 5 -15 10 -15 6 0 10 -7 10
-15 0 -8 4 -15 8 -15 5 0 14 -10 21 -22 9 -19 11 -19 6 -3 -5 20 -5 20 12 0
10 -11 26 -19 36 -17 9 2 17 -2 17 -10 0 -10 3 -9 10 2 7 11 10 11 10 2 0 -8
5 -10 13 -5 6 4 17 8 22 8 23 2 44 18 38 28 -4 6 0 8 10 4 11 -4 17 -1 17 9 0
8 6 22 12 29 31 34 38 45 38 57 0 7 6 25 13 39 8 14 23 65 35 115 30 126 39
182 47 304 8 115 13 181 20 270 3 41 7 100 10 130 25 352 26 356 40 460 5 41
17 153 19 180 1 14 6 31 10 38 4 7 2 12 -6 12 -8 0 -9 3 -3 8 6 4 11 25 12 47
1 22 2 40 3 40 1 0 4 20 5 45 2 25 4 45 5 45 1 0 4 14 5 30 3 30 14 125 21
180 2 17 6 59 9 95 3 35 8 76 11 90 3 14 7 45 9 70 4 47 10 100 21 185 4 27 7
62 8 78 0 15 3 27 6 27 3 0 5 17 6 38 0 20 4 62 8 92 10 72 16 127 21 170 4
51 4 50 13 50 4 0 9 -17 10 -37 3 -48 9 -116 16 -168 2 -22 8 -71 11 -110 4
-38 8 -80 10 -93 2 -13 7 -53 10 -90 4 -37 8 -78 11 -92 3 -23 12 -101 19
-190 2 -19 4 -35 5 -35 1 0 4 -18 5 -40 4 -49 14 -130 20 -170 3 -16 7 -52 10
-80 2 -27 7 -66 10 -85 3 -19 7 -55 10 -80 2 -25 7 -61 11 -80 3 -19 7 -53 9
-75 2 -22 4 -40 5 -40 1 0 3 -18 5 -40 2 -22 6 -58 9 -80 4 -22 8 -58 11 -80
3 -22 7 -56 10 -75 3 -19 7 -51 10 -70 2 -19 6 -48 9 -65 3 -16 8 -52 11 -80
3 -27 8 -66 11 -85 9 -63 15 -104 19 -135 2 -16 6 -52 10 -80 3 -27 9 -63 12
-80 3 -16 7 -46 8 -65 8 -78 23 -155 45 -230 7 -25 14 -49 16 -55 5 -26 53
-123 63 -129 6 -4 9 -12 6 -17 -4 -5 1 -9 10 -9 9 0 13 -4 10 -10 -3 -5 1 -10
9 -10 9 0 16 -4 16 -10 0 -5 7 -10 15 -10 8 0 15 -4 15 -9 0 -14 29 -21 36 -9
4 6 3 8 -4 4 -6 -3 -13 -2 -16 3 -7 11 13 9 32 -3 17 -11 71 16 101 50 21 24
86 138 90 157 0 4 2 9 2 12 1 3 3 10 4 15 1 6 4 12 5 15 1 3 4 10 5 15 1 6 3
11 5 13 1 1 3 9 5 17 2 8 11 44 20 80 9 36 18 74 20 85 5 25 16 85 20 105 2 8
4 15 5 15 1 0 4 11 5 25 6 44 14 85 15 85 1 0 4 11 5 25 2 14 11 68 20 120 9
52 18 106 20 120 2 14 7 45 11 70 4 25 8 56 10 70 1 14 4 41 8 60 3 19 15 100
26 180 12 80 23 159 27 175 3 17 7 44 8 60 4 30 10 71 22 135 3 19 7 44 8 55
2 21 11 74 19 112 3 11 8 43 12 70 3 26 8 57 10 68 7 38 17 100 19 125 2 14 4
26 5 28 1 1 4 11 5 22 1 11 3 21 4 23 2 1 4 19 6 40 2 21 6 49 9 62 4 14 9 45
12 69 2 24 7 55 9 67 3 13 7 35 9 49 9 56 19 116 23 140 2 14 5 36 7 50 3 14
7 41 9 60 3 19 7 49 10 65 7 39 16 101 22 145 3 19 7 44 9 55 3 11 5 31 5 44
2 51 12 10 16 -65 7 -109 13 -163 21 -176 5 -7 3 -8 -6 -3 -8 5 -11 4 -7 -2 7
-11 13 -61 22 -188 7 -103 14 -190 30 -365 1 -19 6 -69 10 -110 4 -41 8 -93
10 -115 2 -22 5 -40 5 -40 1 0 3 -25 5 -55 2 -30 6 -86 10 -125 4 -38 7 -79 7
-89 -1 -11 3 -27 9 -38 7 -12 6 -18 -1 -18 -6 0 -8 -5 -4 -11 7 -11 9 -29 18
-129 3 -30 7 -75 11 -100 3 -25 7 -61 10 -80 2 -19 6 -53 9 -75 3 -22 8 -69
11 -105 3 -36 7 -83 10 -105 2 -22 7 -62 10 -90 10 -94 18 -190 19 -227 1 -21
3 -38 6 -38 3 0 6 -17 7 -37 3 -70 17 -199 29 -273 12 -70 15 -86 25 -140 7
-30 12 -59 13 -65 1 -5 5 -16 9 -22 5 -7 6 -17 2 -22 -3 -5 -1 -12 4 -15 8 -5
25 -63 22 -78 0 -5 3 -8 7 -8 5 0 14 -17 20 -38 6 -21 20 -47 31 -59 11 -11
17 -24 14 -27 -6 -5 12 -10 29 -7 4 0 5 -5 2 -13 -6 -15 22 -30 38 -19 6 3 8
1 4 -5 -3 -6 -2 -13 4 -17 5 -3 10 2 11 12 0 16 1 16 9 -2 6 -13 9 -15 9 -5 1
12 3 12 10 2 6 -11 10 -10 15 3 5 14 9 15 20 6 11 -9 16 -9 22 0 5 8 3 9 -6 4
-9 -6 -11 -4 -6 4 5 7 14 10 22 7 8 -3 14 0 14 7 0 7 9 19 20 27 11 8 20 20
20 27 0 7 4 13 8 13 16 0 67 134 78 202 21 141 20 193 -10 433 -3 22 -8 63
-11 90 -3 28 -8 66 -10 85 -3 19 -7 58 -10 85 -2 28 -6 64 -9 80 -2 17 -7 53
-10 80 -4 28 -9 73 -13 100 -4 28 -7 60 -7 73 -1 12 -3 22 -6 22 -3 0 -5 10
-6 23 -1 33 -13 138 -19 167 -3 14 -7 50 -9 80 -3 30 -8 71 -11 91 -3 20 -7
51 -10 70 -2 19 -7 59 -11 89 -4 30 -8 70 -8 88 -1 17 -3 32 -6 32 -3 0 -6 15
-6 33 -2 35 -10 118 -18 182 -5 37 -8 60 -21 200 -3 28 -7 75 -10 105 -3 30
-8 82 -11 115 -2 33 -6 74 -9 92 -3 18 -7 63 -10 100 -8 103 -15 155 -21 164
-3 5 0 9 6 9 6 0 8 5 5 10 -8 13 -12 46 -20 165 -4 50 -9 115 -11 145 -2 30
-6 80 -8 110 -3 30 -7 89 -10 130 -4 41 -8 102 -11 135 -6 84 -16 230 -20 291
-1 29 -5 57 -9 63 -4 6 -2 11 4 11 6 0 8 4 5 10 -3 5 -8 42 -10 82 -3 40 -7
111 -11 158 -3 47 -7 112 -9 145 -8 141 -14 208 -19 212 -3 3 -1 14 5 24 5 11
6 19 1 19 -4 0 -8 10 -8 23 -1 29 -13 170 -20 227 -3 25 -7 61 -9 80 -10 86
-15 127 -20 150 -2 13 -7 42 -10 65 -10 63 -45 208 -56 228 -5 10 -7 22 -4 27
3 4 -2 16 -11 24 -8 9 -13 16 -10 16 10 0 -46 104 -63 117 -9 7 -12 13 -7 13
18 0 -18 30 -38 31 -11 0 -15 3 -8 6 29 11 8 21 -48 20 -42 -1 -57 -4 -50 -12z"/>
<path d="M3975 8010 c-3 -5 -4 -14 -1 -18 3 -5 -1 -9 -9 -9 -8 0 -12 4 -9 9 3
4 -10 8 -28 8 l-34 0 2 -59 c2 -66 8 -81 31 -81 9 0 13 -3 10 -6 -4 -4 2 -14
12 -23 17 -15 25 -32 38 -83 3 -13 6 -583 7 -1267 1 -991 -1 -1247 -11 -1257
-7 -7 -13 -19 -13 -28 0 -8 -5 -18 -10 -21 -6 -4 -8 -11 -5 -16 4 -5 1 -9 -4
-9 -6 0 -10 -3 -9 -7 1 -5 -6 -23 -15 -40 -10 -18 -18 -36 -18 -40 -1 -5 -8
-24 -16 -43 -9 -19 -17 -39 -19 -45 -1 -5 -12 -32 -25 -60 -13 -27 -24 -55
-25 -61 -1 -6 -10 -29 -19 -50 -9 -22 -21 -48 -25 -59 -5 -11 -18 -41 -28 -67
-11 -25 -18 -49 -14 -52 3 -3 -1 -6 -8 -6 -7 0 -10 -3 -7 -6 3 -4 1 -16 -5
-28 -7 -11 -12 -25 -13 -31 0 -5 -8 -26 -16 -45 -20 -44 -49 -132 -48 -144 0
-5 -3 -12 -8 -15 -5 -3 -20 -40 -33 -81 -13 -41 -29 -78 -35 -82 -5 -4 -6 -8
-1 -8 5 0 2 -7 -5 -17 -8 -9 -13 -18 -11 -20 1 -1 2 -4 1 -5 0 -2 -2 -10 -4
-18 -1 -8 -12 -38 -23 -66 -12 -29 -18 -55 -15 -58 4 -3 1 -6 -5 -6 -7 0 -11
-3 -10 -8 3 -10 -23 -85 -35 -100 -5 -7 -7 -15 -4 -18 3 -4 -3 -24 -14 -45
-11 -22 -17 -39 -15 -39 3 0 -1 -12 -9 -27 -8 -15 -12 -30 -9 -35 3 -4 1 -8
-4 -8 -5 0 -9 -6 -9 -12 -1 -7 -11 -41 -24 -75 -23 -66 -44 -85 -37 -33 3 16
2 30 -1 30 -3 0 -7 15 -7 33 -1 17 -5 57 -8 87 -4 30 -9 80 -11 110 -3 30 -7
71 -9 90 -2 19 -7 62 -10 95 -4 33 -9 80 -13 105 -3 25 -7 59 -9 75 -1 17 -6
55 -9 85 -4 30 -8 73 -10 95 -1 22 -5 56 -9 75 -3 19 -8 60 -12 90 -14 131
-20 184 -28 230 -4 19 -8 55 -11 80 -4 46 -11 100 -20 158 -12 75 -15 99 -19
132 -3 19 -7 51 -11 70 -3 20 -7 54 -10 75 -2 22 -5 40 -5 40 -1 0 -3 11 -5
25 -1 14 -5 39 -9 55 -3 17 -8 46 -11 65 -3 19 -7 46 -10 60 -13 63 -27 157
-27 173 0 9 -2 17 -6 17 -4 0 -8 10 -8 23 -2 30 -9 56 -27 99 -9 20 -13 39 -9
42 3 3 1 6 -5 6 -6 0 -18 16 -27 35 -9 19 -24 35 -32 35 -9 0 -12 5 -8 12 5 7
3 8 -6 3 -8 -5 -18 -1 -26 10 -14 19 -54 29 -54 14 0 -5 -7 -6 -15 -3 -8 4
-15 1 -15 -6 0 -6 -4 -8 -10 -5 -5 3 -10 1 -10 -5 0 -6 -4 -8 -10 -5 -5 3 -10
2 -10 -4 0 -5 -9 -12 -19 -16 -12 -4 -18 -12 -14 -21 3 -7 1 -14 -4 -14 -7 0
-45 -55 -49 -70 -2 -11 -16 -46 -25 -62 -5 -10 -12 -35 -15 -55 -3 -21 -7 -51
-10 -68 -9 -59 -10 -210 -2 -227 6 -12 5 -18 -2 -18 -6 0 -8 -5 -3 -12 8 -15
9 -17 17 -90 8 -70 15 -117 21 -148 3 -14 8 -43 10 -65 3 -22 8 -58 11 -80 3
-22 8 -58 10 -80 2 -22 6 -56 9 -75 8 -55 16 -121 20 -170 2 -25 4 -45 5 -45
2 0 8 -43 14 -100 5 -47 9 -76 22 -162 3 -21 6 -55 6 -75 0 -21 5 -38 10 -38
6 0 5 -7 -2 -15 -7 -8 -9 -15 -4 -15 5 0 9 -15 8 -32 0 -18 2 -37 5 -43 6 -11
8 -33 13 -117 2 -32 5 -58 9 -58 3 0 5 -10 5 -22 0 -13 4 -52 9 -88 4 -36 8
-82 9 -102 1 -21 3 -38 6 -38 3 0 6 -12 6 -27 1 -16 5 -59 10 -98 4 -38 8 -82
8 -97 1 -16 3 -28 6 -28 3 0 6 -12 6 -27 5 -91 9 -133 14 -133 5 0 7 -30 13
-152 1 -27 4 -48 7 -48 3 0 5 -12 6 -27 0 -16 4 -55 8 -88 19 -157 33 -286 41
-379 2 -33 7 -61 9 -64 3 -2 -15 -61 -40 -131 -25 -69 -52 -146 -60 -171 -8
-25 -19 -54 -24 -65 -10 -24 -50 -134 -55 -155 -2 -8 -27 -80 -55 -160 -28
-80 -53 -156 -56 -169 -3 -14 -8 -29 -12 -35 -3 -6 -7 -15 -8 -21 -1 -5 -11
-35 -22 -67 -11 -31 -18 -59 -15 -62 4 -3 1 -6 -6 -6 -8 0 -11 -7 -7 -15 3 -8
1 -15 -4 -15 -6 0 -9 -3 -9 -7 1 -5 0 -10 -1 -13 -1 -3 -3 -13 -5 -22 -2 -9
-14 -52 -28 -95 -14 -43 -35 -114 -47 -158 -11 -44 -23 -86 -25 -93 -3 -7 -5
-14 -5 -17 -1 -3 -6 -19 -11 -37 -5 -18 -11 -44 -14 -58 -3 -14 -7 -36 -10
-50 -20 -89 -25 -230 -12 -327 9 -67 53 -200 79 -235 11 -16 17 -28 14 -28 -3
0 2 -8 12 -18 9 -11 20 -17 23 -15 4 1 10 -4 13 -13 3 -8 10 -12 16 -9 5 3 7
0 5 -8 -4 -10 8 -13 55 -14 33 0 57 3 54 8 -3 5 2 9 10 9 8 0 18 9 21 20 4 11
11 18 16 15 5 -4 9 1 9 9 0 9 5 16 11 16 5 0 8 4 4 9 -3 5 -1 12 5 16 6 4 8
11 5 16 -4 5 -2 9 3 9 6 0 15 13 21 30 5 16 7 30 4 30 -3 0 -1 6 5 13 8 10 34
87 36 109 1 3 4 10 9 14 4 4 7 18 7 30 0 13 5 26 11 29 6 4 8 13 5 20 -2 7 -2
16 2 19 3 4 7 12 8 19 1 7 9 32 18 57 8 25 22 70 30 100 8 30 26 93 41 140 14
47 28 94 30 105 3 11 9 29 14 40 8 17 67 191 75 220 2 6 6 17 9 25 3 8 13 40
23 70 10 30 21 60 25 65 4 6 10 27 14 47 4 21 12 38 18 38 6 0 8 3 4 6 -3 3 3
28 13 55 11 27 16 49 12 49 -4 0 -2 4 3 8 11 7 77 186 78 210 0 6 5 12 10 12
5 0 7 7 3 15 -3 8 -2 15 2 15 4 0 18 33 32 73 13 39 28 77 32 84 5 6 11 24 14
39 3 16 10 34 15 40 5 7 12 23 14 35 3 13 9 33 15 44 5 11 26 65 46 120 19 55
42 114 50 132 8 17 14 34 14 38 0 4 16 48 36 98 20 49 37 95 39 101 1 6 7 25
14 41 6 17 30 80 53 140 22 61 47 124 54 142 8 17 14 33 14 36 0 3 4 16 9 29
5 13 9 26 10 30 1 4 8 20 16 35 8 14 12 30 9 35 -3 4 0 8 6 8 7 0 10 6 7 14
-3 8 -3 16 1 18 8 3 44 96 45 116 0 6 4 12 9 12 4 0 8 6 8 14 0 8 5 27 12 43
6 15 12 30 13 33 1 3 6 16 12 30 6 14 19 49 29 78 10 28 21 52 25 52 7 0 3
-285 -5 -319 -8 -35 -30 -81 -38 -81 -5 0 -8 -7 -8 -16 0 -8 -4 -12 -10 -9 -5
3 -10 -1 -10 -9 0 -9 -5 -15 -11 -13 -7 1 -12 -18 -14 -50 -2 -29 1 -53 6 -53
5 0 8 -5 6 -11 -1 -6 10 -12 25 -13 23 -1 25 1 15 14 -9 11 -6 11 15 -3 16
-10 29 -13 33 -7 3 6 11 10 16 10 6 0 7 -6 3 -12 -5 -9 -2 -9 9 1 14 11 17 11
17 0 0 -8 6 -5 15 7 15 19 15 19 8 -1 -7 -19 -6 -19 19 -3 19 13 29 15 34 6 5
-7 3 -8 -6 -3 -9 6 -11 4 -5 -4 5 -9 10 -10 18 -2 15 15 30 14 21 -1 -6 -10
-4 -10 8 0 13 10 17 10 21 0 4 -9 6 -10 6 -1 1 7 7 10 15 7 8 -3 17 -1 21 5 4
8 13 7 28 -1 28 -15 49 -19 41 -7 -8 13 10 11 25 -3 9 -8 11 -8 8 -2 -4 7 0
14 8 17 10 4 12 1 8 -11 -6 -15 -4 -15 14 1 16 14 23 15 29 6 5 -8 3 -10 -6
-4 -9 5 -11 4 -6 -3 5 -9 13 -9 26 -2 13 7 20 6 23 -3 4 -9 6 -9 6 0 1 7 7 10
15 7 8 -3 17 -1 21 5 4 8 13 7 28 -1 28 -15 49 -19 41 -7 -8 13 10 11 25 -4 9
-7 11 -7 8 -1 -4 7 0 14 8 17 10 4 12 1 8 -11 -6 -15 -4 -15 14 1 16 14 23 15
29 6 5 -8 3 -10 -6 -4 -9 5 -11 4 -6 -3 5 -9 13 -9 26 -2 13 7 20 6 23 -3 4
-9 6 -9 6 1 1 7 6 10 11 7 6 -4 17 -2 24 4 11 9 18 8 30 -4 9 -9 16 -12 16 -6
0 13 22 10 32 -4 5 -6 8 -5 8 3 0 6 9 12 21 12 13 0 18 -4 13 -12 -5 -9 -2 -9
9 1 14 11 17 11 17 0 0 -8 6 -5 15 7 15 19 15 19 8 -1 -7 -19 -6 -19 19 -3 19
13 29 15 34 6 5 -7 3 -8 -6 -3 -9 6 -11 4 -5 -4 5 -9 10 -10 18 -2 15 15 30
14 21 -1 -6 -10 -4 -10 7 0 7 6 17 12 22 12 4 0 5 -6 1 -12 -5 -9 -2 -9 9 1
14 11 17 11 17 0 0 -8 6 -5 15 7 14 18 15 18 8 0 -6 -18 -5 -18 20 -2 24 16
26 16 36 -1 6 -10 11 -12 11 -5 0 8 8 10 25 6 14 -3 25 -2 25 2 0 5 17 8 37 8
26 -1 40 4 45 15 6 14 7 14 7 -1 1 -21 17 -24 24 -4 3 7 15 16 27 19 17 4 20
2 16 -11 -4 -10 3 -6 15 8 11 14 17 19 13 11 -4 -9 -2 -12 7 -9 8 3 13 10 12
16 -1 5 7 8 17 5 11 -3 20 -1 20 5 0 6 9 9 20 7 11 -2 18 0 15 6 -4 5 1 9 9 9
9 0 16 4 16 10 0 5 3 9 8 9 21 -4 43 2 38 10 -3 5 6 12 19 15 14 4 23 11 20
16 -3 6 1 10 10 10 10 0 13 5 9 12 -5 7 -3 8 5 3 13 -8 54 28 44 39 -4 3 5 6
18 6 16 0 20 3 11 8 -9 6 -5 12 13 20 14 7 24 16 21 21 -3 5 1 11 9 15 8 3 15
12 15 21 0 8 6 14 13 12 7 -1 11 6 9 17 -2 11 1 15 7 11 6 -3 11 1 11 9 0 8 6
19 13 23 6 4 25 34 42 66 16 31 32 57 35 57 4 0 7 6 7 13 0 6 14 41 30 77 30
65 44 98 48 113 2 4 4 10 5 15 1 4 2 10 1 15 0 4 4 7 9 7 5 0 9 3 8 8 -2 12
14 66 24 79 5 7 7 17 3 23 -3 5 -1 10 6 10 7 0 10 2 7 6 -3 3 1 26 9 52 15 48
30 101 38 137 3 11 7 29 10 40 16 65 46 207 51 245 3 25 8 54 11 65 3 11 6 34
8 50 2 17 6 48 9 70 6 40 14 105 20 158 1 15 6 30 9 33 3 4 2 15 -4 25 -5 11
-6 19 -1 19 4 0 8 15 9 33 2 63 12 192 17 215 3 12 0 22 -5 22 -6 0 -7 5 -3
12 9 14 11 65 13 246 1 85 5 132 12 132 5 0 8 -4 4 -9 -3 -5 -1 -12 3 -15 5
-3 10 -33 11 -68 1 -35 4 -71 7 -80 3 -10 0 -18 -6 -18 -7 0 -8 -5 -2 -17 6
-9 6 -29 2 -45 -5 -15 -6 -28 -2 -28 4 0 7 -43 7 -95 0 -52 -4 -95 -8 -95 -5
0 -5 -5 -2 -10 10 -16 12 -110 3 -110 -5 0 -5 -7 0 -17 6 -9 6 -29 2 -45 -5
-15 -6 -28 -2 -28 4 0 7 -16 8 -35 0 -19 -3 -35 -8 -35 -5 0 -5 -7 0 -17 6 -9
6 -29 2 -45 -5 -15 -6 -28 -2 -28 4 0 7 -16 8 -35 0 -19 -3 -35 -8 -35 -5 0
-5 -7 0 -17 6 -9 6 -29 2 -45 -5 -15 -6 -28 -2 -28 4 0 7 -16 8 -35 0 -19 -3
-35 -8 -35 -5 0 -5 -7 0 -17 6 -9 6 -29 2 -45 -5 -15 -6 -28 -2 -28 4 0 7 -25
7 -55 0 -30 -3 -55 -7 -55 -4 0 -5 -6 -2 -14 9 -23 10 -186 1 -186 -4 0 -4 -7
1 -17 6 -9 6 -29 2 -45 -5 -15 -6 -28 -2 -28 4 0 7 -43 7 -95 0 -52 -4 -95 -8
-95 -5 0 -5 -5 -2 -10 10 -16 12 -110 3 -110 -5 0 -5 -7 0 -17 6 -9 6 -29 2
-45 -5 -15 -6 -28 -2 -28 4 0 7 -16 8 -35 0 -19 -3 -35 -8 -35 -4 0 -3 -11 2
-25 5 -13 6 -27 1 -29 -4 -3 -7 -15 -6 -28 1 -13 -4 -35 -11 -49 -7 -15 -10
-29 -7 -33 4 -3 -4 -6 -16 -6 -12 0 -20 -4 -16 -9 3 -5 1 -13 -5 -16 -8 -5 -7
-12 2 -22 7 -9 12 -19 11 -22 -1 -3 9 -5 23 -3 14 2 32 -2 41 -10 9 -7 14 -8
10 -2 -4 7 3 12 18 12 14 0 28 -4 31 -9 2 -4 15 -4 28 1 16 6 28 5 36 -3 9 -8
11 -8 7 -1 -4 7 3 12 18 12 16 0 22 -5 18 -12 -4 -7 -1 -6 8 1 16 13 92 15 84
3 -2 -4 2 -7 9 -7 8 0 12 6 9 14 -4 10 0 11 18 5 13 -5 30 -7 38 -4 8 2 11 0
8 -5 -3 -5 0 -10 7 -10 8 0 12 6 9 14 -3 7 0 13 6 13 6 0 11 -8 11 -17 1 -17
1 -17 11 0 6 10 15 14 22 10 7 -5 23 -8 37 -9 14 0 32 -4 39 -9 9 -5 12 -4 8
2 -4 6 4 11 18 11 14 0 28 -4 31 -9 2 -4 15 -4 28 1 16 6 28 5 36 -3 9 -8 11
-8 7 -1 -4 7 3 12 18 12 16 0 22 -5 18 -12 -4 -7 -1 -6 8 1 16 13 92 15 84 3
-2 -4 2 -7 9 -7 8 0 12 6 9 14 -4 10 0 11 18 5 13 -5 30 -7 38 -4 8 2 11 0 8
-5 -3 -5 4 -9 16 -10 12 0 16 1 10 4 -7 3 -13 9 -13 14 0 6 8 5 20 -1 11 -6
20 -8 20 -4 0 3 6 2 13 -3 6 -6 24 -8 40 -6 19 3 27 -1 27 -12 0 -8 4 -15 8
-15 5 0 15 -26 22 -57 10 -46 14 -54 24 -42 8 11 11 116 10 350 0 306 -1 334
-17 337 -11 2 -17 -3 -17 -15 0 -33 -21 -94 -31 -88 -5 4 -9 0 -9 -8 0 -8 -11
-17 -24 -19 -19 -4 -23 -1 -18 11 5 13 3 14 -9 5 -18 -14 -49 -14 -49 0 0 6
-5 3 -10 -6 -8 -13 -17 -15 -40 -8 -20 6 -30 5 -34 -3 -2 -7 -5 -3 -6 8 -1 19
-1 19 -11 2 -8 -14 -14 -16 -25 -6 -8 6 -14 8 -14 3 0 -5 -5 -2 -10 6 -5 8
-10 10 -10 4 0 -7 -7 -14 -14 -17 -11 -4 -13 -1 -9 11 6 14 4 15 -8 5 -16 -13
-36 -12 -58 1 -9 6 -12 5 -7 -2 3 -6 2 -13 -4 -17 -5 -3 -10 2 -10 12 0 11 -3
14 -8 7 -10 -16 -75 -16 -65 -1 3 7 -3 4 -14 -6 -16 -14 -23 -15 -29 -6 -5 8
-3 10 6 4 8 -5 11 -4 6 3 -9 15 -38 3 -29 -12 3 -6 -3 -3 -14 7 -16 14 -23 15
-29 6 -5 -8 -3 -10 6 -4 9 6 11 4 6 -4 -6 -9 -13 -8 -27 5 -17 15 -19 16 -14
2 5 -13 2 -15 -14 -11 -12 3 -18 10 -14 17 3 6 -3 3 -14 -7 -16 -14 -23 -15
-29 -6 -5 8 -3 10 6 4 8 -5 11 -4 6 3 -4 6 -13 9 -21 6 -8 -4 -12 -10 -9 -15
10 -16 -5 -9 -24 11 -12 13 -18 30 -15 48 2 15 4 38 3 52 -6 84 -5 106 3 118
5 7 6 12 0 12 -10 0 -10 60 1 78 4 7 4 12 -1 12 -10 0 -10 121 0 138 5 6 5 12
0 12 -13 0 -8 83 6 105 11 18 12 18 7 1 -6 -18 -5 -18 20 -1 24 16 26 16 21 1
-8 -21 2 -20 20 2 14 16 14 16 9 -2 -5 -16 -4 -17 8 -7 9 8 24 10 38 5 40 -14
47 -13 41 4 -5 14 -2 13 17 -3 13 -11 20 -15 17 -9 -4 7 0 15 9 18 12 5 15 2
10 -11 -6 -14 -4 -14 15 3 20 17 22 17 16 2 -8 -23 2 -23 20 0 14 16 14 16 8
-2 -6 -20 -6 -20 16 0 20 17 22 17 16 2 -8 -23 2 -23 20 0 13 15 14 15 9 0 -4
-13 -1 -15 12 -11 9 4 20 11 24 17 5 7 8 3 8 -8 0 -20 0 -20 15 0 14 18 16 17
19 -6 0 -6 6 -14 12 -18 6 -4 16 -29 24 -57 28 -107 38 -78 36 105 -1 80 2
151 7 158 5 6 6 12 1 12 -13 0 -12 330 1 330 6 0 2 5 -8 11 -22 13 -24 11 -30
-21 -8 -39 -26 -80 -42 -96 -8 -9 -15 -12 -15 -7 0 4 -33 8 -74 8 -41 0 -72
-3 -70 -6 2 -4 -3 -9 -11 -12 -8 -4 -12 -1 -9 6 4 11 -11 12 -109 8 -12 -1
-16 -6 -11 -13 6 -10 4 -10 -7 0 -17 16 -42 16 -34 0 4 -7 0 -5 -7 4 -13 15
-15 15 -26 0 -10 -15 -11 -15 -5 3 7 20 7 20 -21 1 -16 -10 -25 -13 -21 -7 4
7 3 17 -2 24 -11 15 -10 157 0 175 5 6 4 12 0 12 -10 0 -10 61 1 78 4 7 3 12
-3 12 -7 0 -7 8 -1 25 5 13 6 26 2 29 -9 5 -8 134 2 164 6 17 11 20 20 13 7
-6 16 -8 19 -4 4 3 13 0 22 -7 12 -10 16 -10 20 2 7 18 84 16 96 -3 7 -12 9
-11 9 2 0 12 7 15 25 11 14 -2 33 2 42 9 9 8 14 9 10 3 -4 -7 0 -14 8 -18 8
-3 15 -2 15 2 0 15 40 7 41 -8 0 -10 3 -9 9 5 5 11 9 15 9 8 1 -8 10 -9 30 -3
21 6 33 4 43 -7 13 -12 18 -12 29 -1 14 13 61 20 54 7 -3 -4 6 -6 19 -5 13 0
22 4 20 8 -5 7 11 5 54 -8 12 -3 22 -2 22 2 0 5 11 9 24 9 13 0 24 -4 23 -10
-1 -5 4 -9 11 -8 6 2 12 -6 12 -16 0 -11 5 -23 10 -26 6 -3 10 -19 10 -34 0
-15 7 -36 16 -47 8 -10 13 -14 10 -7 -4 6 -3 14 1 16 6 4 9 649 4 689 -2 17
-27 -4 -29 -25 -5 -47 -9 -61 -20 -65 -7 -2 -10 -8 -6 -13 3 -5 0 -9 -6 -9 -6
0 -9 -4 -6 -9 3 -5 -1 -12 -10 -15 -10 -4 -13 -2 -8 7 5 8 2 7 -9 -2 -9 -7
-17 -9 -17 -4 0 5 -7 10 -15 10 -8 0 -12 -4 -9 -9 3 -4 0 -8 -5 -8 -6 0 -11 6
-11 13 0 8 -4 7 -10 -3 -5 -8 -10 -10 -10 -4 0 6 -7 11 -15 11 -8 0 -12 -4 -9
-9 3 -4 0 -8 -5 -8 -6 0 -11 6 -11 13 0 8 -4 7 -10 -3 -5 -8 -10 -10 -10 -4 0
6 -7 11 -15 11 -8 0 -12 -4 -9 -9 3 -4 0 -8 -5 -8 -6 0 -11 6 -11 13 0 8 -4 7
-10 -3 -5 -8 -10 -10 -10 -4 0 6 -7 11 -15 11 -8 0 -12 -4 -9 -9 3 -4 0 -8 -5
-8 -6 0 -11 6 -11 13 0 8 -4 7 -10 -3 -5 -8 -10 -10 -10 -4 0 6 -7 11 -15 11
-8 0 -12 -4 -9 -9 3 -4 0 -8 -5 -8 -6 0 -11 6 -11 13 0 8 -4 7 -10 -3 -8 -12
-10 -12 -10 -1 0 11 -3 11 -16 0 -13 -10 -17 -10 -25 2 -8 12 -10 12 -19 -1
-9 -13 -10 -13 -10 0 0 13 -1 13 -10 0 -9 -13 -10 -13 -10 0 0 13 -1 13 -10 0
-9 -13 -10 -13 -10 0 0 13 -1 13 -10 0 -9 -13 -10 -13 -10 0 0 13 -1 13 -10 0
-9 -13 -10 -13 -10 0 0 13 -1 13 -10 0 -9 -13 -10 -13 -10 0 0 13 -1 13 -10 0
-9 -13 -10 -13 -10 0 0 13 -1 13 -10 0 -9 -13 -10 -13 -10 0 0 13 -1 13 -10 0
-9 -13 -10 -13 -10 0 0 13 -1 13 -10 0 -9 -13 -10 -13 -10 0 0 13 -1 13 -10 0
-9 -13 -10 -13 -10 0 0 13 -1 13 -10 0 -9 -13 -10 -13 -10 0 0 13 -1 13 -10 0
-9 -13 -10 -13 -10 0 0 13 -1 13 -10 0 -9 -13 -10 -13 -10 0 0 13 -1 13 -10 0
-9 -13 -10 -13 -10 0 0 13 -1 13 -10 0 -6 -9 -13 -11 -17 -5 -11 13 -36 18
-28 5 3 -5 1 -10 -4 -10 -6 0 -11 6 -11 13 0 8 -4 7 -10 -3 -5 -8 -10 -10 -10
-4 0 6 -7 11 -15 11 -8 0 -12 -4 -9 -9 3 -4 0 -8 -5 -8 -6 0 -11 6 -11 13 0 8
-4 7 -10 -3 -7 -11 -10 -11 -10 -2 0 8 -5 10 -12 5 -17 -10 -39 -13 -34 -4 3
4 -6 7 -19 7 -13 0 -22 -3 -19 -7 4 -8 -22 -6 -30 2 -2 2 -7 74 -10 159 -4 85
-9 196 -12 245 -3 50 -6 102 -7 118 0 15 -3 27 -6 27 -3 0 -6 17 -7 38 -1 47
-20 222 -29 270 -3 12 -7 32 -9 45 -3 12 -7 40 -11 62 -5 38 -15 91 -30 160
-5 27 -47 198 -61 250 -8 29 -10 38 -17 58 -13 34 -19 52 -23 73 -2 12 -11 35
-19 50 -8 16 -15 33 -15 37 0 9 -24 68 -41 99 -5 10 -9 25 -9 33 0 8 -5 15
-10 15 -6 0 -9 3 -8 8 3 12 -45 102 -55 102 -4 0 -6 4 -2 10 3 5 -3 18 -15 30
-11 11 -17 20 -14 20 4 0 1 6 -5 13 -6 8 -7 17 -3 21 4 4 3 6 -3 4 -5 -2 -11
1 -12 6 0 5 -8 13 -17 18 -9 5 -16 15 -16 23 0 8 -10 21 -22 29 -12 9 -18 16
-13 16 6 0 -11 20 -38 44 -26 25 -47 49 -47 55 0 6 -3 10 -7 10 -21 -3 -33 2
-33 15 0 8 -11 17 -25 20 -17 4 -23 11 -18 19 4 7 0 7 -10 -2 -15 -12 -17 -12
-11 4 5 12 4 16 -3 12 -6 -4 -14 -1 -16 5 -4 10 -6 9 -6 -1 -1 -9 -8 -6 -21 9
-11 13 -20 18 -20 11 0 -7 -5 -9 -10 -6 -6 4 -7 11 -4 17 4 6 -1 8 -16 3 -17
-5 -21 -4 -15 5 6 9 4 11 -5 5 -7 -4 -16 -2 -21 6 -7 12 -9 12 -9 0 0 -11 -4
-10 -13 4 -10 12 -16 15 -21 6 -5 -8 -11 -7 -22 4 -20 19 -41 21 -25 2 8 -10
7 -14 -4 -14 -8 0 -13 3 -10 5 3 3 0 11 -6 19 -9 10 -15 10 -25 2 -10 -8 -17
-7 -29 5 -20 19 -26 20 -19 3 3 -8 -3 -13 -15 -13 -11 0 -18 3 -15 7 2 4 -5 9
-16 12 -11 3 -18 2 -15 -3 3 -4 -2 -11 -11 -14 -10 -4 -13 -2 -8 6 5 7 -1 9
-19 4 -22 -5 -26 -3 -21 11 4 12 3 14 -3 6 -10 -15 -73 -20 -92 -8 -10 5 -12
4 -7 -3 11 -17 -9 -15 -24 3 -9 11 -16 12 -26 4 -7 -6 -18 -8 -23 -4 -7 4 -8
0 -4 -11 6 -15 4 -15 -20 1 -16 10 -27 13 -27 6 0 -6 -4 -11 -10 -11 -5 0 -7
8 -4 18 4 11 3 13 -3 5 -10 -15 -73 -20 -92 -8 -10 6 -12 4 -6 -5 5 -8 3 -11
-6 -8 -8 3 -13 11 -11 17 1 7 -2 10 -8 6 -5 -3 -10 -14 -10 -23 0 -13 -2 -13
-16 4 -8 10 -13 13 -9 7 3 -7 1 -13 -4 -13 -6 0 -11 6 -11 13 -1 7 -6 5 -14
-5 -15 -20 -27 -14 -19 10 4 14 3 14 -5 3 -11 -15 -102 -21 -102 -7 0 6 -7 1
-16 -10 -8 -10 -13 -14 -10 -8 3 7 -1 15 -10 18 -8 3 -12 2 -9 -4 3 -6 2 -10
-4 -10 -5 0 -12 6 -14 13 -4 9 -6 8 -6 -2 -1 -11 -4 -11 -18 0 -15 12 -16 12
-10 -5 6 -16 5 -17 -8 -6 -8 7 -24 10 -35 7 -11 -3 -20 0 -20 6 0 6 -7 2 -16
-9 -8 -10 -13 -14 -10 -8 3 7 -1 15 -10 18 -8 3 -12 2 -9 -4 3 -6 2 -10 -4
-10 -5 0 -12 6 -14 13 -4 9 -6 8 -6 -2 -1 -11 -4 -11 -18 0 -15 12 -16 12 -10
-5 6 -16 5 -17 -8 -6 -8 7 -24 10 -35 7 -11 -3 -20 0 -20 6 0 6 -7 2 -16 -9
-8 -10 -13 -14 -10 -8 3 7 -1 15 -10 18 -8 3 -12 2 -9 -4 3 -6 2 -10 -4 -10
-5 0 -12 6 -14 13 -4 9 -6 8 -6 -2 -1 -11 -4 -11 -18 0 -15 12 -16 12 -10 -3
4 -12 2 -15 -8 -12 -8 3 -11 13 -8 22 4 13 3 14 -5 3 -6 -8 -15 -10 -23 -5
-10 6 -10 3 1 -11 14 -17 14 -18 -8 -6 -12 7 -20 16 -17 22 4 5 4 9 1 9 -3 0
-8 -4 -11 -10z m915 -16 c0 -8 -5 -12 -10 -9 -6 4 -8 11 -5 16 9 14 15 11 15
-7z m-549 -448 c-8 -10 -9 -16 -1 -21 5 -3 10 -2 10 3 0 17 38 20 59 6 15 -11
22 -11 27 -3 5 8 3 9 -7 4 -8 -5 -11 -5 -7 -1 3 4 8 6 11 4 2 -1 12 4 23 12
17 14 18 14 6 -1 -10 -14 -10 -18 3 -23 9 -3 14 -2 11 3 -9 13 31 20 43 8 7
-7 11 -7 11 -1 0 5 9 10 19 10 11 0 17 -4 14 -9 -3 -5 4 -6 16 -2 12 4 28 2
36 -5 10 -8 15 -8 21 1 5 8 3 9 -6 4 -8 -5 -11 -4 -7 2 7 11 36 11 55 -1 6 -4
12 -3 12 1 0 5 9 9 19 9 11 0 17 -4 14 -9 -3 -5 4 -6 16 -2 12 4 28 2 36 -5
10 -8 15 -8 21 1 5 8 3 10 -7 4 -8 -5 -11 -4 -6 1 5 5 12 8 15 7 4 -1 14 4 22
10 13 10 13 10 2 -5 -9 -11 -10 -18 -2 -23 5 -3 10 -2 10 3 0 17 38 20 59 6
15 -11 22 -11 27 -3 5 8 3 9 -7 4 -8 -5 -11 -5 -7 -1 3 4 8 6 11 4 2 -1 12 4
23 12 18 14 18 14 5 -2 -7 -10 -10 -18 -5 -19 5 0 17 -2 27 -4 9 -2 15 1 11 6
-3 5 -10 6 -16 3 -6 -4 -8 -3 -5 3 6 10 70 8 87 -2 6 -3 10 0 11 7 0 7 4 4 9
-7 8 -19 9 -19 9 -1 1 19 1 19 23 0 12 -10 18 -13 14 -6 -4 7 -1 12 9 12 10 0
13 -5 9 -12 -5 -9 -2 -9 9 1 13 10 17 10 17 1 0 -9 4 -9 17 1 9 8 14 9 10 3
-4 -7 0 -15 9 -18 8 -3 12 -2 9 4 -4 6 3 6 20 0 15 -6 31 -8 35 -5 5 3 12 0
17 -8 12 -19 63 -40 59 -24 -1 7 -1 8 2 4 5 -9 53 -31 64 -29 4 1 5 -5 2 -13
-5 -11 -2 -13 10 -9 9 3 16 1 16 -5 0 -6 11 -17 25 -23 14 -6 25 -19 25 -30 0
-10 5 -17 12 -15 7 1 17 -8 23 -20 5 -13 15 -23 22 -23 7 0 13 -7 13 -15 0 -8
9 -24 20 -35 11 -11 17 -20 13 -20 -5 0 -3 -4 2 -8 12 -8 39 -64 37 -74 -1 -5
2 -8 7 -8 7 0 16 -17 36 -70 1 -3 7 -18 14 -35 14 -33 40 -104 45 -120 1 -5 9
-30 16 -55 8 -25 14 -48 16 -52 1 -5 2 -9 4 -10 1 -2 3 -12 5 -23 2 -11 9 -40
15 -65 6 -25 13 -52 15 -60 2 -8 6 -26 9 -40 9 -37 20 -97 30 -160 3 -14 5
-25 6 -25 1 0 3 -18 5 -40 3 -22 6 -53 9 -70 4 -28 7 -52 22 -185 14 -135 17
-228 16 -575 0 -352 -3 -436 -16 -550 -4 -27 -9 -72 -12 -100 -9 -89 -15 -128
-34 -245 -16 -95 -20 -114 -26 -140 -3 -14 -6 -33 -6 -42 1 -10 -3 -18 -8 -18
-5 0 -8 -8 -8 -17 1 -24 -10 -76 -22 -107 -5 -15 -7 -26 -4 -26 4 0 2 -6 -3
-12 -6 -7 -16 -37 -24 -65 -7 -29 -16 -53 -19 -53 -4 0 -7 -6 -8 -12 -4 -53
-109 -272 -139 -291 -7 -4 -13 -14 -13 -21 0 -8 -7 -19 -15 -26 -8 -7 -13 -16
-10 -20 3 -5 0 -12 -6 -16 -8 -5 -10 -2 -5 7 4 8 1 6 -7 -3 -8 -10 -17 -15
-21 -11 -4 4 -4 -1 0 -11 5 -13 4 -17 -4 -12 -6 3 -16 -3 -22 -14 -8 -14 -17
-19 -28 -15 -9 3 -13 3 -10 -1 9 -8 -14 -34 -25 -27 -4 2 -10 -2 -13 -11 -3
-8 -12 -12 -20 -9 -7 3 -17 -2 -20 -11 -3 -9 -10 -16 -16 -16 -5 0 -6 6 -2 13
6 9 5 9 -8 0 -8 -7 -19 -9 -23 -5 -5 4 -5 1 -1 -5 4 -7 5 -13 2 -13 -2 0 -12
-3 -22 -7 -13 -5 -15 -3 -10 8 4 8 1 7 -6 -3 -11 -13 -18 -14 -33 -5 -17 9
-18 8 -8 -5 10 -12 10 -15 -2 -15 -8 0 -15 4 -15 9 0 5 -5 6 -10 3 -6 -4 -8
-11 -5 -16 7 -10 -24 -1 -42 13 -7 5 -14 5 -18 -2 -4 -6 -12 -10 -18 -9 -27 3
-38 -2 -31 -13 6 -10 4 -10 -8 0 -8 7 -23 10 -32 6 -9 -3 -24 0 -33 7 -14 12
-16 12 -8 0 6 -11 4 -13 -8 -8 -10 4 -17 1 -18 -6 0 -9 -2 -9 -6 1 -2 6 -11
12 -19 12 -9 0 -12 -4 -9 -10 3 -5 1 -10 -4 -10 -6 0 -11 4 -11 9 0 5 -24 8
-52 6 -29 -1 -53 -4 -53 -5 0 -1 -8 -3 -18 -5 -9 -2 -15 0 -12 5 3 4 -4 10
-15 13 -11 3 -23 0 -27 -5 -3 -7 -1 -8 5 -4 7 4 12 3 12 -3 0 -5 -9 -9 -20 -8
-14 1 -19 6 -15 16 5 12 2 11 -13 -2 -10 -9 -23 -17 -28 -17 -5 0 -2 4 6 10 9
6 -4 8 -40 6 -81 -5 -82 -5 -74 -18 5 -7 3 -8 -5 -4 -7 5 -10 15 -6 24 5 14 3
14 -13 -1 -10 -9 -23 -17 -28 -17 -5 0 -2 5 6 10 11 8 8 9 -13 8 -20 -2 -26
-7 -22 -18 4 -11 1 -10 -9 3 -14 18 -42 24 -31 7 3 -5 1 -10 -4 -10 -6 0 -11
4 -11 9 0 5 -24 8 -52 7 -29 -2 -58 1 -65 6 -7 6 -14 4 -19 -3 -4 -8 -3 -9 4
-5 7 4 12 3 12 -3 0 -5 -9 -9 -20 -8 -13 1 -19 6 -15 16 4 11 3 12 -10 1 -8
-7 -16 -9 -16 -4 -7 49 -2 814 5 814 5 0 6 3 3 7 -4 3 -3 11 2 17 4 6 18 40
30 76 12 36 24 72 28 80 7 20 17 95 17 143 1 20 3 37 6 37 14 0 -9 211 -29
262 -5 13 -9 25 -9 28 -1 11 -15 48 -35 90 -21 45 -21 53 -22 1185 0 1007 1
1142 15 1153 13 12 13 13 0 6 -8 -4 -11 -3 -7 1 13 15 37 14 37 -1 0 -9 5 -12
10 -9 6 4 8 11 5 16 -3 5 0 6 8 3 8 -3 18 -1 22 5 3 6 9 11 12 11 3 0 0 -6 -6
-14z m2549 -2280 c0 -3 -4 -8 -10 -11 -5 -3 -10 -1 -10 4 0 6 5 11 10 11 6 0
10 -2 10 -4z m-1760 -1632 c0 -8 -5 -12 -10 -9 -6 4 -8 11 -5 16 9 14 15 11
15 -7z m1995 -313 c-9 -8 -36 -10 -30 -2 2 4 11 8 20 8 8 0 13 -3 10 -6z"/>
<path d="M7305 5690 c-15 -24 -10 -55 13 -80 26 -27 47 -73 56 -117 3 -15 11
-50 17 -78 6 -27 12 -59 14 -70 2 -11 4 -20 5 -20 1 0 3 -9 5 -20 3 -11 9 -42
15 -70 6 -27 13 -61 15 -75 3 -14 11 -53 19 -87 7 -35 11 -63 9 -63 -3 0 -1
-6 5 -13 6 -7 13 -28 16 -47 5 -36 12 -78 21 -117 3 -13 6 -25 6 -28 0 -2 7
-33 16 -67 8 -35 16 -72 17 -83 2 -11 6 -31 10 -45 3 -14 8 -36 11 -50 3 -14
9 -44 14 -67 4 -24 6 -43 3 -43 -2 0 0 -6 6 -12 5 -7 11 -29 13 -48 2 -19 7
-41 12 -47 5 -7 7 -13 4 -13 -4 0 0 -24 19 -102 4 -17 7 -31 19 -88 3 -14 8
-36 11 -50 3 -14 7 -35 10 -47 2 -13 6 -33 9 -45 3 -13 10 -45 15 -73 6 -27
13 -61 16 -75 5 -31 42 -195 53 -235 12 -46 7 -180 -7 -197 -6 -8 -9 -18 -5
-21 5 -6 -10 -11 -28 -9 -3 1 -6 -4 -6 -11 0 -7 -2 -16 -3 -22 -5 -19 0 -48 7
-42 3 4 13 1 21 -6 10 -7 13 -8 9 -1 -4 7 2 12 18 12 16 0 22 -5 18 -12 -4 -7
-1 -6 8 1 16 13 92 15 84 3 -2 -4 2 -7 9 -7 8 0 12 6 9 14 -4 10 0 11 18 5 13
-5 30 -7 38 -4 8 2 11 0 8 -5 -3 -5 4 -9 16 -10 12 0 16 1 10 4 -7 3 -13 9
-13 14 0 6 7 6 18 1 9 -5 23 -7 31 -4 9 3 11 0 6 -9 -6 -11 -5 -12 6 -1 15 14
63 17 54 2 -3 -6 1 -7 9 -4 9 3 13 11 9 18 -4 7 -1 6 9 -2 13 -11 15 -8 15 20
-1 22 -7 35 -19 40 -10 4 -18 14 -18 23 0 8 -4 15 -8 15 -17 0 -21 111 -7 180
11 53 14 67 16 73 2 8 9 46 13 72 3 17 5 30 6 30 3 0 19 70 25 110 2 11 6 31
9 45 3 14 9 41 13 60 4 19 8 37 8 40 1 3 4 19 8 35 4 17 10 41 12 55 3 14 10
45 15 70 5 25 12 56 15 70 2 14 10 50 16 80 7 30 12 61 12 68 0 6 4 12 8 12 4
0 6 8 4 18 -1 9 1 26 6 38 7 21 17 69 24 114 1 14 4 25 5 25 2 0 5 14 29 130
6 28 13 61 16 75 4 14 8 36 10 50 4 28 12 63 19 88 3 9 7 34 11 56 3 21 7 42
10 46 2 3 7 22 10 41 5 30 16 77 31 144 3 11 7 29 9 40 2 11 6 31 9 45 4 14 9
39 11 55 12 64 38 161 47 172 5 7 7 17 3 23 -4 6 -1 9 7 8 7 -2 12 3 11 9 -2
7 3 12 9 10 8 -1 13 13 13 43 l0 45 -52 0 c-28 0 -49 -3 -47 -7 3 -5 0 -8 -5
-8 -6 0 -11 6 -11 13 0 8 -4 7 -10 -3 -5 -8 -10 -10 -10 -4 0 6 -7 11 -15 11
-8 0 -12 -4 -9 -9 3 -4 0 -8 -5 -8 -6 0 -11 6 -11 13 0 8 -4 7 -10 -3 -8 -12
-10 -12 -10 -1 0 11 -3 11 -16 0 -9 -7 -18 -9 -22 -3 -10 13 -35 17 -27 4 3
-5 1 -10 -4 -10 -6 0 -11 6 -11 13 0 8 -4 7 -10 -3 -5 -8 -10 -10 -10 -4 0 6
-7 11 -15 11 -8 0 -12 -4 -9 -9 3 -4 0 -8 -5 -8 -6 0 -11 6 -11 13 0 8 -4 7
-10 -3 -5 -8 -10 -10 -10 -4 0 6 -7 11 -15 11 -8 0 -11 -5 -8 -10 4 -6 0 -8
-10 -4 -24 9 -16 -44 11 -73 12 -13 22 -29 23 -34 0 -6 3 -20 6 -31 7 -28 10
-118 4 -130 -3 -5 -6 -19 -7 -30 0 -11 -6 -45 -13 -76 -6 -30 -14 -69 -17 -85
-3 -16 -7 -37 -10 -46 -8 -27 -15 -61 -18 -88 -2 -14 -7 -36 -11 -50 -4 -14
-9 -36 -10 -50 -1 -14 -5 -35 -9 -47 -8 -25 -13 -52 -22 -107 -3 -22 -8 -44
-11 -49 -5 -8 -8 -26 -17 -87 -2 -14 -5 -25 -6 -25 -1 0 -3 -9 -5 -20 -2 -11
-6 -33 -10 -50 -4 -16 -7 -38 -8 -47 -1 -10 -5 -18 -10 -18 -4 0 -5 -4 -2 -10
3 -5 1 -27 -4 -48 -6 -21 -12 -51 -15 -68 -2 -16 -6 -36 -9 -44 -5 -14 -36
-166 -40 -200 -2 -8 -5 -19 -8 -25 -4 -5 -5 -18 -4 -27 2 -10 -3 -18 -11 -18
-12 0 -20 40 -15 73 0 4 -4 7 -10 7 -5 0 -8 4 -5 8 3 5 -1 35 -9 68 -7 32 -16
73 -19 89 -3 17 -8 44 -11 60 -3 17 -8 39 -9 50 -2 11 -7 31 -10 45 -5 23 -11
52 -21 105 -4 21 -11 54 -20 95 -4 14 -8 34 -10 45 -2 11 -6 31 -9 45 -7 27
-15 71 -21 110 -3 14 -9 43 -14 65 -12 48 -21 97 -35 180 -1 6 -5 16 -9 23 -5
6 -6 12 -4 12 3 0 1 17 -4 38 -5 20 -12 51 -14 67 -3 17 -7 41 -10 55 -13 57
-15 69 -18 128 -3 44 1 73 14 101 9 22 14 43 11 47 -4 4 -2 4 5 0 26 -14 41
55 16 75 -11 10 -14 10 -9 2 4 -7 3 -13 -3 -13 -5 0 -12 6 -14 13 -4 9 -8 8
-16 -3 -10 -13 -11 -13 -11 0 0 13 -1 13 -10 0 -9 -13 -10 -13 -10 0 0 13 -1
13 -10 0 -9 -13 -10 -13 -10 0 0 13 -1 13 -10 0 -9 -13 -10 -13 -10 0 0 13 -1
13 -10 0 -9 -13 -10 -13 -10 0 0 13 -1 13 -10 0 -9 -13 -10 -13 -10 0 0 13 -1
13 -10 0 -9 -13 -10 -13 -10 0 0 13 -1 13 -10 0 -9 -13 -10 -13 -10 0 0 13 -1
13 -10 0 -9 -13 -10 -13 -10 0 0 13 -1 13 -10 0 -9 -13 -10 -13 -10 0 0 13 -1
13 -10 0 -9 -13 -10 -13 -10 0 0 13 -1 13 -10 0 -9 -13 -10 -13 -10 0 0 13 -1
13 -10 0 -9 -13 -10 -13 -10 0 0 13 -1 13 -10 0 -9 -13 -10 -13 -10 0 0 13 -1
13 -10 0 -9 -13 -10 -13 -10 0 0 12 -2 12 -9 2 -4 -8 -12 -14 -16 -14 -4 0
-12 6 -16 14 -7 10 -9 10 -9 -2 0 -12 -2 -12 -9 -1 -7 10 -10 10 -16 1z"/>
<path d="M114 2456 c18 -14 18 -15 -3 -13 -11 1 -21 5 -21 10 0 5 -7 4 -16 -4
-13 -10 -17 -10 -25 2 -8 12 -10 12 -19 -1 -6 -10 -10 -11 -10 -2 0 6 -4 12
-10 12 -6 0 -9 -180 -7 -497 2 -463 3 -496 19 -499 10 -1 20 2 24 7 3 5 10 9
16 9 6 0 5 -7 -3 -17 -13 -15 -11 -15 18 1 18 9 33 12 33 6 0 -5 -5 -10 -12
-10 -6 0 -8 -3 -5 -6 4 -4 13 -1 22 6 8 7 15 9 15 5 0 -4 8 -1 17 6 9 8 14 9
10 3 -4 -7 0 -15 9 -18 8 -3 12 -2 9 3 -3 5 -1 12 5 16 5 3 10 1 10 -6 0 -8 5
-7 17 2 9 8 14 9 10 3 -4 -7 0 -15 9 -18 9 -3 12 -2 9 4 -4 7 3 9 19 6 14 -3
28 0 31 5 4 5 11 9 17 9 6 0 5 -7 -3 -17 -13 -15 -11 -15 18 1 18 9 33 12 33
6 0 -5 -5 -10 -12 -10 -6 0 -8 -3 -5 -6 4 -4 13 -1 22 6 8 7 15 9 15 5 0 -4 6
-2 14 4 11 10 17 8 25 -6 10 -17 10 -17 11 2 1 12 4 15 7 7 4 -10 8 -10 21 0
9 8 13 8 9 2 -4 -7 0 -15 9 -18 9 -3 12 -2 9 4 -4 7 3 9 19 6 14 -3 28 0 31 5
4 5 11 9 17 9 6 0 5 -7 -3 -17 -13 -15 -11 -15 19 1 17 9 32 12 32 6 0 -5 -5
-10 -12 -10 -6 0 -8 -3 -5 -6 4 -4 13 -1 22 6 8 7 15 9 15 5 0 -4 8 -1 17 6 9
8 14 9 10 3 -4 -7 0 -15 9 -18 8 -3 12 -2 9 3 -3 5 -1 12 5 16 5 3 10 1 10 -6
0 -8 5 -7 17 2 9 8 14 9 10 3 -4 -7 0 -15 9 -18 9 -3 12 -2 9 4 -4 7 3 9 19 6
14 -3 28 0 31 5 4 5 11 9 17 9 6 0 5 -7 -3 -17 -13 -15 -11 -15 19 1 17 9 32
12 32 6 0 -5 -5 -10 -12 -10 -6 0 -8 -3 -5 -6 4 -4 13 -1 22 6 8 7 15 9 15 5
0 -4 6 -2 14 4 11 10 17 8 25 -6 10 -17 10 -17 11 2 1 12 4 15 7 7 4 -10 8
-10 21 0 9 8 13 8 9 2 -4 -7 0 -15 9 -18 9 -3 12 -2 9 4 -4 7 3 9 19 6 14 -3
28 0 31 5 4 5 11 9 17 9 6 0 5 -7 -3 -17 -13 -15 -11 -15 19 1 17 9 32 12 32
6 0 -5 -5 -10 -12 -10 -6 0 -8 -3 -5 -6 4 -4 13 -1 22 6 8 7 15 9 15 5 0 -4 8
-1 17 6 9 8 14 9 10 3 -4 -7 0 -15 9 -18 8 -3 12 -2 9 3 -3 5 -1 12 5 16 5 3
10 1 10 -6 0 -8 5 -7 17 2 9 8 14 9 10 3 -4 -7 0 -15 9 -18 9 -3 12 -2 9 4 -4
7 3 9 19 6 14 -3 28 0 31 5 4 5 11 9 17 9 6 0 5 -7 -3 -17 -13 -15 -12 -15 9
-4 12 6 22 9 22 5 0 -3 8 0 17 7 9 8 14 9 10 3 -4 -7 2 -11 18 -11 16 0 22 4
18 11 -4 7 -1 6 8 -1 12 -10 18 -10 29 0 10 10 11 9 5 -2 -6 -10 -4 -13 7 -8
9 3 21 0 27 -6 9 -9 10 -7 5 8 -7 17 -5 18 7 8 12 -10 18 -10 29 0 8 7 10 7 7
1 -4 -7 3 -11 18 -11 16 0 22 4 18 11 -4 7 -1 6 8 -1 12 -10 18 -10 29 0 10
10 11 9 5 -2 -6 -10 -4 -13 7 -8 9 3 21 0 27 -6 9 -9 10 -7 5 8 -7 17 -5 18 7
8 12 -10 18 -10 29 0 8 7 10 7 7 1 -4 -7 3 -11 18 -11 16 0 22 4 18 11 -4 7
-1 6 8 -1 12 -10 18 -10 29 0 10 10 11 9 5 -2 -6 -10 -4 -13 7 -8 9 3 21 0 27
-6 9 -9 10 -7 5 8 -7 17 -5 18 7 8 12 -10 18 -10 29 0 8 7 10 7 7 1 -4 -7 3
-11 18 -11 16 0 22 4 18 11 -4 7 -1 6 8 -1 12 -10 18 -10 29 0 10 10 11 9 5
-2 -6 -10 -4 -13 7 -8 9 3 21 0 27 -6 9 -9 10 -8 5 7 -6 15 -4 17 7 10 20 -12
38 -14 45 -3 3 5 10 9 16 9 6 0 5 -7 -3 -17 -13 -15 -11 -15 19 1 17 9 32 12
32 6 0 -5 -5 -10 -12 -10 -6 0 -8 -3 -5 -6 4 -4 13 -1 22 6 8 7 15 9 15 5 0
-4 8 -1 17 6 9 8 14 9 10 3 -4 -7 0 -15 9 -18 8 -3 12 -2 9 3 -3 5 -1 12 5 16
5 3 10 1 10 -6 0 -8 5 -7 17 2 9 8 14 9 10 3 -4 -7 0 -15 9 -18 9 -3 12 -2 9
4 -4 7 3 9 19 6 14 -3 28 0 31 5 4 5 11 9 17 9 6 0 5 -7 -3 -17 -13 -15 -11
-15 19 1 17 9 32 12 32 6 0 -5 -5 -10 -12 -10 -6 0 -8 -3 -5 -6 4 -4 13 -1 22
6 8 7 15 9 15 5 0 -4 6 -2 14 4 11 10 17 8 25 -6 10 -17 10 -17 11 2 1 12 4
15 7 7 4 -10 8 -10 21 0 9 8 13 8 9 2 -4 -7 0 -15 9 -18 9 -3 12 -2 9 4 -4 7
3 9 18 6 22 -4 26 1 37 42 7 26 17 52 21 57 4 6 8 13 8 18 1 4 1 8 2 10 0 1 2
9 4 17 2 8 16 53 31 100 15 47 29 90 30 95 1 8 34 113 50 165 3 8 5 15 4 15 0
0 13 41 30 90 17 50 34 101 36 115 3 13 10 30 16 37 6 7 8 13 4 13 -3 0 0 16
8 35 8 19 12 35 9 35 -3 0 -1 6 5 13 5 6 13 28 17 47 4 19 12 41 19 49 8 11 8
15 -2 18 -6 3 -10 9 -7 13 3 5 1 12 -5 15 -6 4 -9 3 -8 -2 2 -4 -1 -8 -7 -8
-5 0 -9 4 -7 9 2 5 -4 4 -12 -3 -9 -7 -13 -18 -9 -24 4 -6 1 -7 -6 -3 -7 5
-10 15 -7 25 5 12 2 11 -9 -3 -9 -12 -15 -15 -15 -7 0 11 -3 11 -17 0 -9 -8
-14 -9 -10 -3 4 7 0 14 -8 17 -9 4 -12 1 -9 -7 4 -10 -4 -13 -26 -12 -22 0
-29 5 -25 16 3 9 -1 7 -10 -4 -9 -12 -15 -15 -15 -7 0 11 -3 11 -17 0 -9 -8
-14 -9 -10 -3 4 7 0 14 -8 17 -10 4 -12 1 -8 -10 4 -11 2 -14 -8 -11 -8 3 -13
11 -11 18 3 11 0 11 -12 1 -9 -7 -13 -18 -9 -24 4 -6 1 -7 -6 -3 -7 5 -10 15
-7 25 5 12 2 11 -9 -3 -9 -12 -15 -15 -15 -7 0 11 -3 11 -17 0 -9 -8 -14 -9
-10 -3 4 7 0 14 -8 17 -9 4 -12 1 -8 -9 4 -12 -1 -14 -22 -10 -16 3 -32 11
-37 18 -6 10 -8 8 -8 -5 0 -18 -20 -19 -32 -2 -5 6 -8 4 -8 -5 0 -13 -1 -13
-10 0 -9 13 -10 13 -10 0 0 -13 -2 -13 -9 -1 -5 8 -17 16 -25 17 -9 1 -14 -2
-11 -6 3 -5 1 -11 -5 -15 -5 -3 -10 -1 -10 5 0 8 -6 8 -20 0 -12 -6 -20 -7
-20 -1 0 10 -19 9 -37 -2 -7 -4 -13 0 -16 10 -4 15 -5 15 -6 -2 -1 -16 -3 -17
-10 -6 -5 8 -17 16 -25 17 -9 1 -14 -2 -11 -6 3 -5 1 -11 -5 -15 -5 -3 -10 -1
-10 5 0 8 -6 8 -20 0 -12 -6 -20 -7 -20 -1 0 10 -19 9 -37 -2 -9 -6 -13 -2
-13 9 0 16 -1 16 -16 -2 -8 -10 -13 -14 -10 -8 3 7 -1 14 -9 17 -9 4 -12 1 -9
-7 4 -10 -4 -13 -26 -12 -22 0 -29 5 -25 16 3 9 -1 7 -10 -4 -9 -12 -15 -15
-15 -7 0 11 -3 11 -17 0 -9 -8 -14 -9 -10 -3 4 7 0 14 -8 17 -10 4 -12 1 -8
-10 4 -11 2 -14 -8 -11 -8 3 -13 11 -11 18 3 11 0 11 -12 1 -9 -7 -13 -18 -9
-24 4 -6 1 -7 -6 -3 -7 5 -10 15 -7 25 5 12 2 11 -9 -3 -9 -12 -15 -15 -15 -7
0 11 -3 11 -17 0 -9 -8 -14 -9 -10 -3 4 7 0 14 -8 17 -9 4 -12 1 -9 -7 4 -10
-4 -13 -26 -12 -22 0 -29 5 -25 16 3 9 -1 7 -10 -4 -9 -12 -15 -15 -15 -7 0
11 -3 11 -17 0 -9 -8 -14 -9 -10 -3 4 7 0 14 -8 17 -10 4 -12 1 -8 -10 4 -11
2 -14 -8 -11 -8 3 -13 11 -11 18 3 11 0 11 -12 1 -9 -7 -13 -18 -9 -24 4 -6 1
-7 -6 -3 -7 5 -10 15 -7 25 5 12 2 11 -9 -3 -9 -12 -15 -15 -15 -7 0 11 -3 11
-17 0 -9 -8 -14 -9 -10 -3 4 7 0 14 -8 17 -9 4 -12 1 -8 -9 4 -12 -1 -14 -22
-10 -16 3 -32 11 -37 18 -6 10 -8 8 -8 -4 0 -19 -20 -20 -32 -3 -5 6 -8 4 -8
-5 0 -13 -1 -13 -10 0 -7 11 -10 11 -10 2 0 -7 -5 -10 -10 -7 -6 4 -7 12 -3
18 4 7 0 6 -10 -2 -9 -7 -14 -18 -10 -24 4 -6 1 -7 -6 -3 -7 5 -10 15 -7 25 5
12 2 11 -9 -3 -9 -12 -15 -15 -15 -7 0 11 -3 11 -17 0 -9 -8 -14 -9 -10 -3 4
7 0 14 -8 17 -9 4 -12 1 -8 -9 7 -18 -27 -14 -51 5 -14 12 -16 12 -11 0 4 -10
-1 -15 -15 -15 -11 0 -20 5 -20 11 0 5 -5 3 -10 -5 -8 -12 -10 -12 -10 -1 0 8
-3 11 -7 8 -3 -4 -12 -2 -20 5 -8 6 -13 7 -12 2 4 -23 -2 -26 -17 -8 -8 10
-13 13 -9 7 4 -8 0 -13 -9 -13 -24 0 -31 4 -28 14 2 5 -4 4 -12 -3 -9 -7 -13
-18 -9 -24 4 -6 1 -7 -6 -3 -7 5 -10 15 -7 25 5 12 2 11 -9 -3 -9 -12 -15 -15
-15 -7 0 11 -3 11 -17 0 -9 -8 -14 -9 -10 -3 4 7 0 14 -8 17 -9 4 -12 1 -9 -8
4 -10 -2 -13 -23 -11 -25 3 -40 7 -78 23 -5 3 -2 -2 9 -11 18 -14 18 -15 -3
-13 -11 1 -21 5 -21 10 0 5 -7 4 -16 -4 -13 -10 -17 -10 -25 2 -8 12 -10 12
-19 -1 -6 -10 -10 -11 -10 -2 0 6 -5 12 -11 12 -5 0 -7 -5 -3 -11 4 -7 1 -10
-7 -7 -8 3 -13 11 -11 18 3 11 0 11 -12 1 -9 -7 -13 -18 -9 -24 4 -6 1 -7 -6
-3 -7 5 -10 15 -7 25 5 12 2 11 -9 -3 -9 -12 -15 -15 -15 -7 0 11 -3 11 -17 0
-9 -8 -14 -9 -10 -3 4 7 0 14 -8 17 -9 4 -12 1 -8 -9 7 -18 -27 -14 -51 5 -14
12 -16 12 -11 0 4 -10 -1 -15 -15 -15 -11 0 -20 5 -20 11 0 5 -5 3 -10 -5 -8
-12 -10 -12 -10 -1 0 8 -3 11 -7 8 -3 -4 -12 -2 -20 5 -8 6 -13 7 -12 2 4 -23
-2 -26 -17 -8 -8 10 -13 13 -9 7 4 -8 0 -13 -9 -13 -24 0 -31 4 -28 14 2 5 -4
4 -12 -3 -9 -7 -13 -18 -9 -24 4 -6 1 -7 -6 -3 -7 5 -10 15 -7 25 5 12 2 11
-9 -3 -9 -12 -15 -15 -15 -7 0 11 -3 11 -17 0 -9 -8 -14 -9 -10 -3 4 7 0 14
-8 17 -9 4 -12 1 -9 -8 4 -10 -2 -13 -23 -11 -25 3 -40 7 -78 23 -5 3 -2 -2 9
-11z"/>
<path d="M3657 2450 c-16 -12 -26 -24 -23 -27 4 -4 -30 -104 -53 -158 -18 -40
-24 -60 -22 -72 1 -7 -3 -13 -10 -13 -6 0 -9 -7 -5 -15 3 -8 2 -15 -3 -15 -4
0 -8 -6 -9 -12 -1 -15 -59 -176 -73 -200 -5 -10 -9 -22 -9 -27 0 -5 -5 -22
-12 -38 -6 -15 -12 -30 -13 -33 -1 -3 -5 -13 -9 -22 -4 -9 -9 -22 -10 -30 -3
-12 -15 -44 -33 -88 -3 -8 -7 -21 -9 -27 -5 -24 -58 -158 -67 -171 -11 -14 1
-32 24 -35 8 -2 20 -6 26 -10 9 -6 11 -3 6 10 -6 15 -4 16 8 6 12 -10 18 -10
29 0 8 7 10 7 7 1 -4 -7 3 -11 18 -11 16 0 22 4 18 11 -4 7 -1 6 8 -1 12 -10
18 -10 29 0 10 10 11 9 5 -2 -6 -10 -4 -13 7 -8 9 3 21 0 27 -6 9 -9 10 -7 5
8 -7 17 -5 18 7 8 12 -10 18 -10 29 0 8 7 10 7 7 1 -4 -7 3 -11 18 -11 16 0
22 4 18 11 -4 7 -1 6 8 -1 12 -10 18 -10 29 0 10 10 11 9 5 -2 -6 -10 -4 -13
7 -8 9 3 21 0 27 -6 9 -9 11 -7 5 8 -6 16 -4 18 6 8 11 -10 17 -10 29 0 9 7
12 8 8 1 -4 -7 2 -11 18 -11 15 0 22 4 18 11 -3 6 -1 6 7 -1 11 -10 17 -10 29
0 12 10 13 9 6 -2 -6 -11 -4 -13 7 -8 9 3 21 0 27 -6 9 -9 10 -8 5 7 -6 15 -4
17 7 10 20 -12 38 -14 45 -3 3 5 10 9 16 9 6 0 5 -7 -3 -17 -13 -15 -11 -15
19 1 17 9 32 12 32 6 0 -5 -5 -10 -12 -10 -6 0 -8 -3 -5 -6 4 -4 13 -1 22 6 8
7 15 9 15 5 0 -4 8 -1 17 6 9 8 14 9 10 3 -4 -7 0 -15 9 -18 8 -3 12 -2 9 3
-3 5 -1 12 5 16 5 3 10 1 10 -6 0 -8 5 -7 17 2 9 8 14 9 10 3 -4 -7 0 -15 9
-18 9 -3 12 -2 9 4 -4 7 3 9 19 6 14 -3 28 0 31 5 4 5 11 9 17 9 6 0 5 -7 -3
-17 -13 -15 -11 -15 19 1 17 9 32 12 32 6 0 -5 -5 -10 -12 -10 -6 0 -8 -3 -5
-6 4 -4 13 -1 22 6 8 7 15 9 15 5 0 -4 6 -2 14 4 11 10 17 8 25 -6 10 -17 10
-17 11 2 1 12 4 15 7 7 4 -10 8 -10 21 0 9 8 13 8 9 2 -4 -7 0 -15 9 -18 9 -3
12 -2 9 4 -4 7 3 9 19 6 14 -3 28 0 31 5 4 5 11 9 17 9 6 0 5 -7 -3 -17 -13
-15 -11 -15 19 1 17 9 32 12 32 6 0 -5 -5 -10 -12 -10 -6 0 -8 -3 -5 -6 4 -4
13 -1 22 6 8 7 15 9 15 5 0 -4 8 -1 17 6 9 8 14 9 10 3 -4 -7 0 -15 9 -18 8
-3 12 -2 9 3 -3 5 -1 12 5 16 5 3 10 1 10 -6 0 -8 5 -7 17 2 9 8 14 9 10 3 -4
-7 0 -15 9 -18 9 -3 12 -2 9 4 -4 7 3 9 19 6 14 -3 28 0 31 5 4 5 11 9 17 9 6
0 5 -7 -3 -17 -13 -15 -11 -15 19 1 17 9 32 12 32 6 0 -5 -5 -10 -12 -10 -6 0
-8 -3 -5 -6 4 -4 13 -1 22 6 8 7 15 9 15 5 0 -4 6 -2 14 4 11 10 17 8 25 -6
10 -17 10 -17 11 2 1 12 4 15 7 7 4 -10 8 -10 21 0 9 8 13 8 9 2 -4 -7 0 -15
9 -18 9 -3 12 -2 9 4 -4 7 3 9 19 6 14 -3 28 0 31 5 4 5 11 9 17 9 6 0 5 -7
-3 -17 -13 -15 -11 -15 19 1 17 9 32 12 32 6 0 -5 -5 -10 -12 -10 -6 0 -8 -3
-5 -6 4 -4 13 -1 22 6 8 7 15 9 15 5 0 -4 8 -1 17 6 9 8 14 9 10 3 -4 -7 0
-15 9 -18 8 -3 12 -2 9 3 -3 5 -1 12 5 16 5 3 10 1 10 -6 0 -8 5 -7 17 2 9 8
14 9 10 3 -4 -7 0 -15 9 -18 9 -3 12 -2 9 4 -4 7 3 9 19 6 14 -3 28 0 31 5 4
5 11 9 17 9 6 0 5 -7 -3 -17 -13 -15 -12 -15 6 -6 11 6 28 9 37 8 10 -2 20 1
24 6 3 5 10 9 16 9 6 0 5 -7 -3 -17 -13 -15 -11 -15 19 1 17 9 32 12 32 6 0
-5 -5 -10 -12 -10 -6 0 -8 -3 -5 -6 4 -4 13 -1 22 6 8 7 15 9 15 5 0 -4 8 -1
17 6 9 8 14 9 10 3 -4 -7 0 -15 9 -18 8 -3 12 -2 9 3 -3 5 -1 12 5 16 5 3 10
1 10 -6 0 -8 5 -7 17 2 9 8 14 9 10 3 -4 -7 0 -15 9 -18 9 -3 12 -2 9 4 -4 7
3 9 19 6 14 -3 28 0 31 5 4 5 11 9 17 9 6 0 5 -7 -3 -17 -13 -15 -11 -15 19 1
17 9 32 12 32 6 0 -5 -5 -10 -12 -10 -6 0 -8 -3 -5 -6 4 -4 13 -1 22 6 8 7 15
9 15 5 0 -4 6 -2 14 4 11 10 17 8 25 -6 10 -17 10 -17 11 2 1 12 4 15 7 7 4
-10 8 -10 21 0 9 8 13 8 9 2 -4 -7 0 -15 9 -18 9 -3 12 -2 9 4 -4 7 3 9 19 6
14 -3 28 0 31 5 4 5 11 9 17 9 6 0 5 -7 -3 -17 -13 -15 -11 -15 19 1 17 9 32
12 32 6 0 -5 -5 -10 -12 -10 -6 0 -8 -3 -5 -6 4 -4 13 -1 22 6 8 7 15 9 15 5
0 -4 8 -1 17 6 9 8 14 9 10 3 -4 -7 0 -15 9 -18 8 -3 12 -2 9 3 -3 5 -1 12 5
16 5 3 10 1 10 -6 0 -8 5 -7 17 2 9 8 14 9 10 3 -4 -7 0 -15 9 -18 9 -3 12 -2
9 4 -4 7 3 9 19 6 14 -3 28 0 31 5 4 5 11 9 17 9 6 0 5 -7 -3 -17 -13 -15 -11
-15 19 1 17 9 32 12 32 6 0 -5 -5 -10 -12 -10 -6 0 -8 -3 -5 -6 4 -4 13 -1 22
6 8 7 15 9 15 5 0 -4 6 -2 14 4 11 10 17 8 25 -6 10 -17 10 -17 11 2 1 12 4
15 7 7 4 -10 8 -10 21 0 9 8 13 8 9 2 -4 -7 0 -15 9 -18 9 -3 12 -2 9 4 -4 7
3 9 19 6 14 -3 28 0 31 5 4 5 11 9 17 9 6 0 5 -7 -3 -17 -13 -15 -11 -15 19 1
17 9 32 12 32 6 0 -5 -5 -10 -12 -10 -6 0 -8 -3 -5 -6 4 -4 13 -1 22 6 8 7 15
9 15 5 0 -4 8 -1 17 6 9 8 14 9 10 3 -4 -7 0 -15 9 -18 8 -3 12 -2 9 3 -3 5
-1 12 5 16 5 3 10 1 10 -6 0 -8 5 -7 17 2 9 8 14 9 10 3 -4 -7 0 -15 9 -18 9
-3 12 -2 9 4 -4 7 3 9 19 6 14 -3 28 0 31 5 4 5 11 9 17 9 6 0 5 -7 -3 -17
-13 -15 -12 -15 9 -4 12 6 22 9 22 5 0 -3 8 0 17 7 9 8 14 9 10 3 -4 -7 2 -11
18 -11 16 0 22 4 18 11 -4 7 -1 6 8 -1 12 -10 18 -10 29 0 10 10 11 9 5 -2 -6
-10 -4 -13 7 -8 9 3 21 0 27 -6 9 -9 10 -7 5 8 -7 17 -5 18 7 8 12 -10 18 -10
29 0 8 7 10 7 7 1 -4 -7 3 -11 18 -11 16 0 22 4 18 11 -4 7 -1 6 8 -1 12 -10
18 -10 29 0 10 10 11 9 5 -2 -6 -10 -4 -13 7 -8 9 3 21 0 27 -6 9 -9 10 -7 5
8 -7 17 -5 18 7 8 12 -10 18 -10 29 0 8 7 10 7 7 1 -4 -7 3 -11 18 -11 16 0
22 4 18 11 -4 7 -1 6 8 -1 12 -10 18 -10 29 0 10 10 11 9 5 -2 -6 -10 -4 -13
7 -8 9 3 21 0 27 -6 9 -9 10 -7 5 8 -7 17 -5 18 7 8 12 -10 18 -10 29 0 8 7
10 7 7 1 -4 -7 3 -11 18 -11 16 0 22 4 18 11 -4 7 -1 6 8 -1 12 -10 18 -10 29
0 10 10 11 9 5 -2 -6 -10 -4 -13 7 -8 9 3 21 0 27 -6 9 -9 10 -8 5 7 -6 15 -4
17 7 10 20 -12 38 -14 45 -3 3 5 10 9 16 9 6 0 5 -7 -3 -17 -13 -15 -11 -15
19 1 17 9 32 12 32 6 0 -5 -5 -10 -12 -10 -6 0 -8 -3 -5 -6 4 -4 13 -1 22 6 8
7 15 9 15 5 0 -4 8 -1 17 6 9 8 14 9 10 3 -4 -7 0 -15 9 -18 8 -3 12 -2 9 3
-3 5 -1 12 5 16 5 3 10 1 10 -6 0 -8 5 -7 17 2 9 8 14 9 10 3 -4 -7 0 -15 9
-18 9 -3 12 -2 9 4 -4 7 3 9 19 6 14 -3 28 0 31 5 4 5 11 9 17 9 6 0 5 -7 -3
-17 -13 -15 -11 -15 19 1 17 9 32 12 32 6 0 -5 -5 -10 -12 -10 -6 0 -8 -3 -5
-6 4 -4 13 -1 22 6 8 7 15 9 15 5 0 -4 6 -2 14 4 11 10 17 8 25 -6 10 -17 10
-17 11 2 1 12 4 15 7 7 4 -10 8 -10 21 0 9 8 13 8 9 2 -4 -7 0 -15 9 -18 9 -3
12 -2 9 4 -4 7 3 9 19 6 14 -3 28 0 31 5 4 5 11 9 17 9 6 0 5 -7 -3 -17 -13
-15 -11 -15 19 1 17 9 32 12 32 6 0 -5 -5 -10 -12 -10 -6 0 -8 -3 -5 -6 4 -4
13 -1 22 6 8 7 15 9 15 5 0 -4 8 -1 17 6 9 8 14 9 10 3 -4 -7 0 -15 9 -18 8
-3 12 -2 9 3 -3 5 -1 12 5 16 5 3 10 1 10 -6 0 -8 5 -7 17 2 9 8 14 9 10 3 -4
-7 0 -15 9 -18 9 -3 12 -2 9 4 -4 7 3 9 19 6 14 -3 28 0 31 5 4 5 11 9 17 9 6
0 5 -7 -3 -17 -13 -15 -11 -15 19 1 17 9 32 12 32 6 0 -5 -5 -10 -12 -10 -6 0
-8 -3 -5 -6 4 -4 13 -1 22 6 8 7 15 9 15 5 0 -4 6 -2 14 4 11 10 17 8 25 -6
10 -17 10 -17 11 2 1 12 4 15 7 7 4 -10 8 -10 21 0 9 8 13 8 9 2 -4 -7 0 -15
9 -18 9 -3 12 -2 9 4 -4 7 3 9 19 6 14 -3 28 0 31 5 4 5 11 9 17 9 6 0 5 -7
-3 -17 -13 -15 -11 -15 19 1 17 9 32 12 32 6 0 -5 -5 -10 -12 -10 -6 0 -8 -3
-5 -6 4 -4 13 -1 22 6 8 7 15 9 15 5 0 -4 8 -1 17 6 9 8 14 9 10 3 -4 -7 0
-15 9 -18 8 -3 12 -2 9 3 -3 5 -1 12 5 16 5 3 10 1 10 -6 0 -8 5 -7 17 2 9 8
14 9 10 3 -4 -7 0 -15 9 -18 9 -3 12 -2 9 4 -4 7 3 9 19 6 14 -3 28 0 31 5 4
5 11 9 17 9 6 0 5 -7 -3 -17 -13 -15 -12 -15 9 -4 12 6 22 9 22 5 0 -3 8 0 17
7 9 8 14 9 10 3 -4 -7 2 -11 18 -11 16 -1 22 4 18 11 -4 7 -1 6 8 -1 12 -10
18 -10 29 0 10 10 11 9 5 -2 -6 -10 -4 -13 7 -8 9 3 21 0 27 -6 9 -9 10 -7 5
8 -7 17 -5 18 7 8 11 -9 19 -9 26 -2 8 8 13 7 18 -2 6 -8 4 -10 -6 -4 -12 8
-12 6 0 -8 16 -20 22 -22 18 -4 -1 6 5 11 14 9 14 -2 16 46 16 503 0 288 -3
502 -9 499 -4 -3 -5 -11 -1 -17 4 -7 0 -6 -10 2 -16 12 -22 8 -18 -12 1 -5 -3
-5 -9 -2 -6 4 -9 14 -6 24 5 12 2 11 -9 -3 -9 -12 -15 -15 -15 -7 0 11 -3 11
-17 0 -9 -8 -14 -9 -10 -3 4 7 0 14 -8 17 -9 4 -12 1 -8 -9 4 -12 -1 -14 -22
-10 -16 3 -32 11 -37 18 -6 10 -8 8 -8 -4 0 -19 -20 -20 -32 -3 -5 6 -8 4 -8
-5 0 -13 -1 -13 -10 0 -9 13 -10 13 -10 0 0 -13 -2 -13 -9 -1 -5 8 -17 16 -25
17 -9 1 -14 -2 -11 -6 3 -5 1 -11 -5 -15 -5 -3 -10 -1 -10 5 0 8 -6 8 -20 0
-12 -6 -20 -7 -20 -1 0 10 -19 9 -37 -2 -7 -4 -13 0 -16 10 -4 15 -5 15 -6 -2
-1 -16 -3 -17 -10 -6 -5 8 -17 16 -25 17 -9 1 -14 -2 -11 -6 3 -5 1 -11 -5
-15 -5 -3 -10 -1 -10 5 0 8 -6 8 -20 0 -12 -6 -20 -7 -20 -1 0 10 -19 9 -37
-2 -9 -6 -13 -2 -13 9 0 16 -1 16 -16 -2 -8 -10 -13 -14 -10 -8 3 7 -1 14 -9
17 -9 4 -12 1 -9 -7 4 -10 -4 -13 -26 -12 -22 0 -29 5 -25 16 3 9 -1 7 -10 -4
-9 -12 -15 -15 -15 -7 0 11 -3 11 -17 0 -9 -8 -14 -9 -10 -3 4 7 0 14 -8 17
-10 4 -12 1 -8 -10 4 -11 2 -14 -8 -11 -8 3 -13 11 -11 18 3 11 0 11 -12 1 -9
-7 -13 -18 -9 -24 4 -6 1 -7 -6 -3 -7 5 -10 15 -7 25 5 12 2 11 -9 -3 -9 -12
-15 -15 -15 -7 0 11 -3 11 -17 0 -9 -8 -14 -9 -10 -3 4 7 0 14 -8 17 -9 4 -12
1 -9 -7 4 -10 -4 -13 -26 -12 -22 0 -29 5 -25 16 3 9 -1 7 -10 -4 -9 -12 -15
-15 -15 -7 0 11 -3 11 -17 0 -9 -8 -14 -9 -10 -3 4 7 0 14 -8 17 -10 4 -12 1
-8 -10 4 -11 2 -14 -8 -11 -8 3 -13 11 -11 18 3 11 0 11 -12 1 -9 -7 -13 -18
-9 -24 4 -6 1 -7 -6 -3 -7 5 -10 15 -7 25 5 12 2 11 -9 -3 -9 -12 -15 -15 -15
-7 0 11 -3 11 -17 0 -9 -8 -14 -9 -10 -3 4 7 0 14 -8 17 -9 4 -12 1 -8 -9 4
-12 -1 -14 -22 -10 -16 3 -32 11 -37 18 -6 10 -8 8 -8 -4 0 -19 -20 -20 -32
-3 -5 6 -8 4 -8 -5 0 -13 -1 -13 -10 0 -9 13 -10 13 -10 0 0 -13 -2 -13 -9 -1
-5 8 -17 16 -25 17 -9 1 -14 -2 -11 -6 3 -5 1 -11 -5 -15 -5 -3 -10 -1 -10 5
0 8 -6 8 -20 0 -12 -6 -20 -7 -20 -1 0 10 -19 9 -37 -2 -7 -4 -13 0 -16 10 -4
15 -5 15 -6 -2 -1 -16 -3 -17 -10 -6 -5 8 -17 16 -25 17 -9 1 -14 -2 -11 -6 3
-5 1 -11 -5 -15 -5 -3 -10 -1 -10 5 0 8 -6 8 -20 0 -12 -6 -20 -7 -20 -1 0 10
-19 9 -37 -2 -9 -6 -13 -2 -13 9 0 16 -1 16 -16 -2 -8 -10 -13 -14 -10 -8 3 7
-1 14 -9 17 -9 4 -12 1 -9 -7 4 -10 -4 -13 -26 -12 -22 0 -29 5 -25 16 3 9 -1
7 -10 -4 -9 -12 -15 -15 -15 -7 0 11 -3 11 -17 0 -9 -8 -14 -9 -10 -3 4 7 0
14 -8 17 -10 4 -12 1 -8 -10 4 -11 2 -14 -8 -11 -8 3 -13 11 -11 18 3 11 0 11
-12 1 -9 -7 -13 -18 -9 -24 4 -6 1 -7 -6 -3 -7 5 -10 15 -7 25 5 12 2 11 -9
-3 -9 -12 -15 -15 -15 -7 0 11 -3 11 -17 0 -9 -8 -14 -9 -10 -3 4 7 0 14 -8
17 -9 4 -12 1 -9 -7 4 -10 -4 -13 -26 -12 -22 0 -29 5 -25 16 3 9 -1 7 -10 -4
-9 -12 -15 -15 -15 -7 0 11 -3 11 -17 0 -9 -8 -14 -9 -10 -3 4 7 0 14 -8 17
-10 4 -12 1 -8 -10 4 -11 2 -14 -8 -11 -8 3 -13 11 -11 18 3 11 0 11 -12 1 -9
-7 -13 -18 -9 -24 4 -6 1 -7 -6 -3 -7 5 -10 15 -7 25 5 12 2 11 -9 -3 -9 -12
-15 -15 -15 -7 0 11 -3 11 -17 0 -9 -8 -14 -9 -10 -3 4 7 0 14 -8 17 -9 4 -12
1 -8 -9 4 -12 -1 -14 -22 -10 -16 3 -32 11 -37 18 -6 10 -8 8 -8 -5 0 -18 -20
-19 -32 -2 -5 6 -8 4 -8 -5 0 -13 -1 -13 -10 0 -7 11 -10 11 -10 2 0 -7 -5
-10 -10 -7 -6 4 -7 12 -3 18 4 7 0 6 -10 -2 -9 -7 -14 -18 -10 -24 4 -6 1 -7
-6 -3 -7 5 -10 15 -7 25 5 12 2 11 -9 -3 -9 -12 -15 -15 -15 -7 0 11 -3 11
-17 0 -9 -8 -14 -9 -10 -3 4 7 0 14 -8 17 -9 4 -12 1 -8 -9 7 -18 -27 -14 -51
5 -14 12 -16 12 -11 0 4 -10 -1 -15 -15 -15 -11 0 -20 5 -20 11 0 5 -5 3 -10
-5 -8 -12 -10 -12 -10 -1 0 8 -3 11 -7 8 -3 -4 -12 -2 -20 5 -8 6 -13 7 -12 2
4 -23 -2 -26 -17 -8 -8 10 -13 13 -9 7 4 -8 0 -13 -9 -13 -24 0 -31 4 -28 14
2 5 -4 4 -12 -3 -9 -7 -13 -18 -9 -24 4 -6 1 -7 -6 -3 -7 5 -10 15 -7 25 5 12
2 11 -9 -3 -9 -12 -15 -15 -15 -7 0 11 -3 11 -17 0 -9 -8 -14 -9 -10 -3 4 7 0
14 -8 17 -9 4 -12 1 -9 -8 4 -10 -2 -13 -23 -11 -25 3 -40 7 -78 23 -5 3 -2
-2 9 -11 18 -14 18 -15 -3 -13 -11 1 -21 5 -21 10 0 5 -7 4 -16 -4 -13 -10
-17 -10 -25 2 -8 12 -10 12 -19 -1 -6 -10 -10 -11 -10 -2 0 6 -5 12 -11 12 -5
0 -7 -5 -3 -11 4 -7 1 -10 -7 -7 -8 3 -13 11 -11 18 3 11 0 11 -12 1 -9 -7
-13 -18 -9 -24 4 -6 1 -7 -6 -3 -7 5 -10 15 -7 25 5 12 2 11 -9 -3 -9 -12 -15
-15 -15 -7 0 11 -3 11 -17 0 -9 -8 -14 -9 -10 -3 4 7 0 14 -8 17 -9 4 -12 1
-8 -9 7 -18 -27 -14 -51 5 -14 12 -16 12 -11 0 4 -10 -1 -15 -15 -15 -11 0
-20 5 -20 11 0 5 -5 3 -10 -5 -8 -12 -10 -12 -10 -1 0 8 -3 11 -7 8 -3 -4 -12
-2 -20 5 -8 6 -13 7 -12 2 4 -23 -2 -26 -17 -8 -8 10 -13 13 -9 7 4 -8 0 -13
-9 -13 -24 0 -31 4 -28 14 2 5 -4 4 -12 -3 -9 -7 -13 -18 -9 -24 4 -6 1 -7 -6
-3 -7 5 -10 15 -7 25 5 12 2 11 -9 -3 -9 -12 -15 -15 -15 -7 0 11 -3 11 -17 0
-9 -8 -14 -9 -10 -3 4 7 0 14 -8 17 -9 4 -12 1 -9 -8 4 -10 -2 -13 -23 -11
-25 3 -40 7 -78 23 -5 3 -2 -2 9 -11 18 -14 18 -15 -3 -13 -11 1 -21 5 -21 10
0 5 -7 4 -16 -4 -13 -10 -17 -10 -25 2 -8 12 -10 12 -19 -1 -6 -10 -10 -11
-10 -2 0 6 -5 12 -11 12 -5 0 -7 -5 -3 -11 4 -7 1 -10 -7 -7 -8 3 -13 11 -11
18 3 11 0 11 -12 1 -9 -7 -13 -18 -9 -24 4 -6 1 -7 -6 -3 -7 5 -10 15 -7 25 5
12 2 11 -9 -3 -9 -12 -15 -15 -15 -7 0 11 -3 11 -17 0 -9 -8 -14 -9 -10 -3 4
7 0 14 -8 17 -9 4 -12 1 -8 -9 7 -18 -27 -14 -51 5 -14 12 -16 12 -11 0 4 -10
-1 -15 -15 -15 -11 0 -20 5 -20 11 0 5 -5 3 -10 -5 -8 -12 -10 -12 -10 -1 0 8
-3 11 -7 8 -3 -4 -12 -2 -20 5 -8 6 -13 7 -12 2 4 -23 -2 -26 -17 -8 -8 10
-13 13 -9 7 4 -8 0 -13 -9 -13 -24 0 -31 4 -28 14 2 5 -4 4 -12 -3 -9 -7 -13
-18 -9 -24 4 -6 1 -7 -6 -3 -7 5 -10 15 -7 25 5 12 2 11 -9 -3 -9 -12 -15 -15
-15 -7 0 11 -3 11 -17 0 -9 -8 -14 -9 -10 -3 4 7 0 14 -8 17 -9 4 -12 1 -9 -8
4 -10 -2 -13 -23 -11 -25 3 -40 7 -78 23 -5 3 -2 -2 9 -11 18 -14 18 -15 -3
-13 -11 1 -21 5 -21 10 0 5 -7 4 -16 -4 -13 -10 -17 -10 -25 2 -8 12 -10 12
-19 -1 -6 -10 -10 -11 -10 -2 0 6 -5 12 -11 12 -5 0 -7 -5 -3 -11 4 -7 1 -10
-7 -7 -8 3 -13 11 -11 18 3 11 0 11 -12 1 -9 -7 -13 -18 -9 -24 4 -6 1 -7 -6
-3 -7 5 -10 15 -7 25 5 12 2 11 -9 -3 -9 -12 -15 -15 -15 -7 0 11 -3 11 -17 0
-9 -8 -14 -9 -10 -3 4 7 0 14 -8 17 -9 4 -12 1 -8 -9 7 -18 -27 -14 -51 5 -14
12 -16 12 -11 0 4 -10 -1 -15 -15 -15 -11 0 -20 5 -20 11 0 5 -5 3 -10 -5 -8
-12 -10 -12 -10 -1 0 8 -3 11 -7 8 -3 -4 -12 -2 -20 5 -8 6 -13 7 -12 2 4 -23
-2 -26 -17 -8 -8 10 -13 13 -9 7 4 -8 0 -13 -9 -13 -27 0 -31 2 -28 13 2 6 -4
5 -12 -2 -9 -7 -13 -18 -9 -24 4 -6 1 -7 -6 -3 -7 5 -10 15 -7 25 5 12 2 11
-9 -3 -9 -12 -15 -15 -15 -7 0 11 -3 11 -17 0 -9 -8 -14 -9 -10 -3 4 7 0 14
-8 17 -9 4 -12 1 -9 -8 4 -10 -2 -13 -23 -11 -25 3 -40 7 -78 23 -5 3 -2 -2 9
-11 18 -14 18 -15 -3 -13 -11 1 -21 5 -21 10 0 5 -7 4 -16 -4 -13 -10 -17 -10
-25 2 -8 12 -10 12 -19 -1 -6 -10 -10 -11 -10 -2 0 6 -5 12 -11 12 -5 0 -8 -4
-5 -8 3 -5 -1 -9 -9 -9 -8 0 -12 4 -10 8 3 4 -2 9 -10 12 -9 4 -12 1 -9 -7 4
-9 -6 -13 -35 -12 -21 0 -37 4 -34 8 2 5 -3 8 -11 8 -9 0 -16 -5 -16 -12 0 -6
-6 -4 -13 6 -12 16 -14 16 -40 -4z m25 -12 c-7 -7 -12 -8 -12 -2 0 14 12 26
19 19 2 -3 -1 -11 -7 -17z"/>
</g>
</svg>
