<?xml version="1.0" standalone="no"?>
<!DOCTYPE svg PUBLIC "-//W3C//DTD SVG 20010904//EN"
 "http://www.w3.org/TR/2001/REC-SVG-20010904/DTD/svg10.dtd">
<svg version="1.0" xmlns="http://www.w3.org/2000/svg"
 width="1000.000000pt" height="1000.000000pt" viewBox="0 0 1000.000000 1000.000000"
 preserveAspectRatio="xMidYMid meet">
<metadata>
Created by potrace 1.11, written by Peter Selinger 2001-2013
</metadata>
<g transform="translate(0.000000,1000.000000) scale(0.100000,-0.100000)"
fill="#000000" stroke="none">
<path d="M2425 7113 c-116 -26 -227 -171 -259 -337 -12 -62 -30 -140 -42 -181
-7 -27 -21 -81 -30 -120 -9 -38 -29 -117 -46 -175 -16 -58 -36 -127 -43 -155
-8 -27 -21 -69 -29 -93 -8 -23 -15 -43 -14 -45 6 -13 -245 -760 -262 -780 -15
-17 -165 579 -211 843 -5 30 -14 80 -19 110 -6 30 -12 66 -15 80 -3 14 -12 66
-21 115 -27 156 -64 327 -91 415 -69 229 -153 309 -312 298 -151 -11 -243
-111 -320 -349 -28 -86 -82 -305 -96 -389 -3 -19 -13 -71 -21 -115 -9 -44 -18
-93 -21 -110 -19 -115 -58 -304 -79 -380 -14 -49 -65 -229 -114 -400 -49 -170
-94 -330 -100 -355 -6 -25 -13 -54 -16 -65 -8 -34 -44 -218 -48 -255 -35 -265
-27 -353 36 -439 91 -121 302 -123 396 -4 49 63 86 157 97 248 3 28 15 102 25
165 11 63 22 131 25 151 3 20 46 198 96 395 49 197 92 366 93 374 2 8 12 42
22 75 9 33 17 66 17 73 1 33 17 -13 37 -103 12 -55 23 -107 25 -115 2 -8 15
-62 30 -120 14 -58 28 -112 30 -122 17 -73 93 -352 130 -478 26 -85 48 -162
50 -170 16 -66 71 -232 86 -262 27 -52 97 -121 145 -142 93 -40 225 -12 302
64 56 56 136 216 196 393 25 73 116 353 120 372 2 6 6 17 9 25 3 8 20 56 37
105 18 50 61 173 97 275 35 102 78 227 95 278 17 51 32 91 34 89 4 -3 8 -26
39 -212 14 -82 37 -204 50 -270 13 -66 26 -133 29 -150 9 -49 15 -76 20 -93 3
-9 7 -28 10 -42 2 -14 18 -81 35 -150 33 -138 88 -380 102 -450 14 -67 81
-200 125 -244 53 -54 115 -80 185 -79 140 3 256 107 260 235 2 43 -49 248
-140 568 -40 142 -101 377 -116 450 -2 8 -8 35 -14 60 -5 25 -13 61 -16 80 -3
19 -10 53 -15 75 -5 22 -14 69 -20 105 -6 36 -16 85 -21 110 -10 53 -35 206
-44 270 -3 25 -8 56 -10 70 -4 22 -13 84 -30 205 -3 22 -10 70 -16 107 -6 37
-12 78 -14 90 -3 24 -24 140 -39 213 -10 47 -50 154 -79 208 -66 126 -182 187
-302 160z"/>
<path d="M4610 6896 c1 -26 7 -34 43 -51 76 -36 73 -2 72 -726 l0 -644 -65
-65 c-56 -56 -146 -154 -252 -277 -33 -39 -268 -337 -363 -460 -38 -51 -72
-92 -75 -92 -3 -1 -13 36 -23 82 -97 439 -247 953 -322 1097 -73 141 -274 163
-397 43 -76 -74 -86 -179 -33 -333 45 -132 257 -932 330 -1248 l35 -154 -88
-111 c-246 -313 -439 -588 -499 -714 -60 -125 -43 -216 56 -306 22 -20 53 -39
68 -43 16 -4 33 -10 38 -14 22 -17 120 -8 167 16 57 29 86 65 223 274 166 254
388 542 830 1075 19 22 100 121 180 220 81 99 157 190 169 203 l22 23 -1 -73
c-1 -98 -16 -132 -71 -159 -37 -18 -44 -25 -44 -51 l0 -29 773 4 c424 2 783 7
797 10 14 3 43 8 65 11 322 40 567 188 743 447 77 114 160 316 187 459 12 62
25 183 29 258 2 46 6 85 9 88 3 3 11 -4 17 -16 9 -17 12 -165 12 -562 0 -495
-2 -541 -18 -559 -9 -10 -25 -21 -36 -25 -11 -3 -18 -13 -16 -22 3 -15 52 -17
578 -18 316 -1 584 -2 596 -3 12 0 27 -13 35 -28 16 -32 30 -44 41 -37 4 3 8
85 8 184 0 144 -3 179 -14 183 -9 4 -19 -5 -26 -23 -6 -16 -19 -32 -28 -36
-28 -13 -822 -13 -823 0 -1 6 -2 75 -3 153 l-1 143 248 0 248 0 24 -25 c14
-13 25 -28 25 -33 0 -6 7 -12 15 -16 13 -5 15 19 15 179 0 151 -3 185 -14 185
-7 0 -19 -13 -26 -30 -7 -16 -22 -32 -34 -36 -11 -4 -126 -8 -254 -8 -199 -1
-235 1 -241 14 -9 19 -7 247 2 256 12 12 763 7 786 -5 11 -7 24 -23 27 -37 4
-16 12 -24 22 -22 14 3 16 27 17 186 0 167 -1 182 -17 182 -10 0 -18 -6 -18
-13 0 -7 -9 -23 -20 -35 l-21 -22 -557 0 -558 0 0 33 c-1 54 -15 180 -25 227
-6 25 -12 52 -14 60 -61 286 -222 544 -435 695 -157 110 -265 148 -540 191
-25 4 -390 8 -812 9 l-768 2 0 -31z m1495 -220 c317 -37 475 -125 621 -347
120 -184 176 -392 178 -659 0 -176 -9 -254 -51 -405 -84 -308 -284 -530 -536
-594 -160 -41 -225 -45 -802 -46 l-500 0 -2 205 c-1 212 1 225 43 270 35 38
67 118 67 170 0 53 -28 114 -78 168 l-33 37 0 605 0 605 516 -1 c285 0 544 -4
577 -8z"/>
<path d="M8526 5695 c-3 -10 6 -20 29 -31 41 -19 48 -31 152 -254 45 -96 103
-220 128 -275 26 -55 75 -161 110 -235 34 -74 80 -171 101 -215 25 -54 38 -94
38 -125 1 -41 -2 -46 -31 -60 -32 -15 -44 -39 -20 -41 6 -1 114 -2 239 -3 178
-1 229 2 233 12 2 7 -6 17 -20 22 -32 12 -57 52 -51 81 4 23 24 69 109 249 19
41 68 147 109 235 212 453 248 529 262 555 8 14 30 36 50 49 71 48 57 51 -197
51 -129 0 -236 -3 -240 -6 -9 -9 4 -34 18 -34 25 0 54 -48 48 -82 -7 -43 -316
-729 -325 -720 -4 4 -66 140 -138 302 -73 162 -141 314 -151 338 -40 87 -34
137 17 161 13 6 24 17 24 26 0 22 -485 23 -494 0z"/>
<path d="M0 3740 l0 -260 1463 0 c1382 0 1465 1 1479 18 8 9 53 73 100 142 47
69 99 145 117 170 17 25 54 78 81 118 l50 72 -1645 0 -1645 0 0 -260z"/>
<path d="M4117 3740 l-207 -260 3040 0 3040 0 0 260 0 260 -2832 0 -2833 0
-208 -260z"/>
</g>
</svg>
