<svg xmlns="http://www.w3.org/2000/svg" width="1000" height="467" viewBox="0 0 1000 467">
  <defs>
    <style>
      .cls-1, .cls-4 {
        fill: #ff780b;
      }

      .cls-1, .cls-2, .cls-3, .cls-4 {
        fill-rule: evenodd;
      }

      .cls-3, .cls-4 {
        stroke: #fff;
        stroke-width: 1px;
      }
    </style>
  </defs>
  <path id="M" class="cls-1" d="M128.694,260.045l10.248,34.68q9.148,20.7,26.351,20.7,17.383,0,27.084-17.34,7.317-13.048,14.091-33.374l10.98-34.307q19.03-53.509,27.267-78.5,10.246,62.835,19.032,96.4L274,293.42q9.7,29.086,29.646,29.086a27.565,27.565,0,0,0,18.117-6.712,23.475,23.475,0,0,0,8.6-18.458q0-5.036-16.287-62.648Q297.967,178.01,287.354,98.579q-4.576-34.121-8.6-46.613-9.7-30.948-29.646-30.951-20.682,0-30.561,26.662L208.3,90.562q-17.937,66.191-38.8,121.566A960.4,960.4,0,0,1,145.53,107.342q-8.419-50.153-15.738-66.376-7.87-17.152-24.522-17.153-14.643,0-24.248,13.145T63.18,89.63q-5.49,28.715-10.8,57.426-1.467,7.089-20.313,72.157-12.627,43.446-12.627,73.648a26.761,26.761,0,0,0,6.222,17.713q7.317,8.762,19.947,8.763,20.129,0,27.633-26.476,3.294-20.88,6.771-41.952,14.823-60.969,23.058-91.174,11.344,52.579,25.62,100.31h0Z"/>
  <path id="y" class="cls-1" d="M511.685,211.949a22.224,22.224,0,0,0-3.646-18.66,27.02,27.02,0,0,0-15.931-11.31q-13.206-3.371-23.952,7.614-16.959,17.219-36.028,40.755-6.213,7.758-35.5,45.465-16.519-76.659-33.186-116.946-4.356-10.45-15.975-13.419a24.875,24.875,0,0,0-19.239,2.907q-9.381,5.426-11.76,15.11-1.677,6.821,1.049,16.282,2.679,8.119,5.232,16.015,23.469,86.445,33.269,130.313-57.528,72.635-61.627,89.319a22.07,22.07,0,0,0,3.47,18.616,26.983,26.983,0,0,0,15.976,11.131q16.2,4.132,26.682-11.112,13.305-19.866,19.735-30.043,19.38-27.846,53.429-68.915,62.985-76.58,92.188-112.4a27.576,27.576,0,0,0,5.816-10.718h0Z"/>
  <path id="D" class="cls-2" d="M469.945,284.019q-2.565,2.985-9.15,4.848v5.967H592.554q41.9,0,67.435-12.213t42.182-40.18q18.481-31.507,18.482-74.953,0-36.729-13.725-65.631-15.74-33-45.749-48.85Q637.388,40.33,592.554,40.329H460.8v5.966q6.588,1.866,9.15,4.848t2.562,8.577V275.443Q472.507,281.037,469.945,284.019ZM501.238,64.567h90.218q29.646,0,47.214,6.712T668.5,94.026q22.14,29.086,22.143,73.462a139.182,139.182,0,0,1-6.954,44.934q-10.615,30.765-33.306,45.681Q631.167,270.6,591.456,270.6H501.238V64.567Z"/>
  <path id="ev" class="cls-2" d="M799.953,234.162a7.83,7.83,0,0,1,5.326,1.6q1.811,1.6,2.909,5.562h2.965V205.188h-2.965q-1.209,4.028-3.019,5.593a7.748,7.748,0,0,1-5.216,1.566H753.618v-27.52h74.664a8.022,8.022,0,0,1,5.325,1.542q1.812,1.542,2.91,5.618h2.964V154.958h-2.964q-1.1,4.028-2.91,5.593a7.926,7.926,0,0,1-5.325,1.567H717.165v3.132q3.952,1.231,5.49,3.02a7.876,7.876,0,0,1,1.537,5.258V276a8.14,8.14,0,0,1-1.592,5.369,10.335,10.335,0,0,1-5.435,2.909v3.132h114.52a7.789,7.789,0,0,1,5.271,1.622q1.866,1.622,2.854,5.538h3.075V257.543H839.81q-1.1,4.077-2.909,5.618a7.836,7.836,0,0,1-5.216,1.542H753.618V234.162h46.335Zm97.585-52.691q-2.744-6.041-2.744-8.5,0-5.479,7.026-7.719v-3.132H852.547v3.132a15.079,15.079,0,0,1,6.429,3.524q1.921,2.072,5,8.782l43.072,92.293q2.305,4.923,2.308,7.5,0,5.6-7.139,7.048v3.02h48.231v-3.02q-7.25-1.454-7.248-7.048,0-2.572,2.307-7.5l43.074-92.293q3.075-6.6,5.054-8.726a15.119,15.119,0,0,1,6.376-3.58v-3.132H952.463v3.132q7.136,2.127,7.137,7.719,0,2.8-2.635,8.5L927.13,247.74Z"/>
  <path class="cls-3" d="M0,332.805H329.433l-35.979,51.55H0v-51.55Z"/>
  <path id="Rectangle_2_copy" data-name="Rectangle 2 copy" class="cls-4" d="M432.873,332.805h566.67v51.55H391.272Z"/>
</svg>
